<?xml version="1.0" encoding="utf-8"?>
<!-- Generator: Adobe Illustrator 26.0.3, SVG Export Plug-In . SVG Version: 6.00 Build 0)  -->
<svg version="1.1" id="Layer_1" xmlns="http://www.w3.org/2000/svg" xmlns:xlink="http://www.w3.org/1999/xlink" x="0px" y="0px"
	 viewBox="0 0 326 328" style="enable-background:new 0 0 326 328;" xml:space="preserve">
<style type="text/css">
	.st0{fill:#48AE4D;}
	.st1{fill:#248937;}
</style>
<g>
	<path class="st0" d="M183,155.9c-7.9-25.8-27.6-56.1-28.2-56.9c-4.8-6.5-9.8-12.5-14.7-18.1c-17-18.4-55.7-52.2-95-31.3
		c-27.8,14.8-33.4,46.5-32.5,73.3c0.8,22.9,6.8,45.3,16.8,65.9c4.8,10,10.9,21.5,17.2,30.5c22.5,30.2,47.4,49.5,61,57.1
		c11.3,6.2,21.2,10.2,29.9,12.4c2.2,0.6,4.4-0.6,5.3-2.6c11.1-25.6,2-70.8-3.7-93.4c-1-3.9,4.1-6.2,6.5-3
		c18.2,23.8,23,61.8,24.2,86.4c0.2,4,5.3,5.8,7.8,2.8c1.2-1.4,2.2-2.9,3.2-4.6c5.6-9.7,9.9-23.4,11.9-42.3
		C194.2,217.5,192.9,188.9,183,155.9z"/>
	<path class="st0" d="M281,49.6c-39.3-20.9-78,12.9-95,31.3c-4.9,5.5-9.8,11.5-14.6,17.9c6.7,11.2,19,33,25.1,52.9l0,0.1
		c10.2,33.8,12,64.3,10.3,81.5c-1.2,10.9-3.1,20.6-5.8,29.2l0,0c0,0-0.5,1.5-1.1,3.5c0,0,0,0.1,0,0.1c-0.7,1.9-1.5,4.2-2.3,6.1
		c-1.7,3.7,0.5,8.2,4.4,8.2c3.8,0,14.6-2.2,26.8-10.5c14-9.9,33.1-26.9,50.8-50.5c6.3-9.1,12.4-20.6,17.2-30.5
		c10-20.6,16-43,16.8-65.9C314.3,96.1,308.7,64.4,281,49.6z"/>
	<path class="st0" d="M183,155.9c-7.9-25.8-27.6-56.1-28.2-56.9c-4.8-6.5-9.8-12.5-14.7-18.1c-17-18.4-55.7-52.2-95-31.3
		c-27.8,14.8-33.4,46.5-32.5,73.3c0.8,22.9,6.8,45.3,16.8,65.9c4.8,10,10.9,21.5,17.2,30.5c22.5,30.2,47.4,49.5,61,57.1
		c11.3,6.2,21.2,10.2,29.9,12.4c2.2,0.6,4.4-0.6,5.3-2.6c11.1-25.6,2-70.8-3.7-93.4c-1-3.9,4.1-6.2,6.5-3
		c18.2,23.8,23,61.8,24.2,86.4c0.2,4,5.3,5.8,7.8,2.8c1.2-1.4,2.2-2.9,3.2-4.6c5.6-9.7,9.9-23.4,11.9-42.3
		C194.2,217.5,192.9,188.9,183,155.9z"/>
	<path class="st1" d="M281,49.6c-39.3-20.9-78,12.9-95,31.3c-4.9,5.5-9.8,11.5-14.6,17.9c6.7,11.2,19,33,25.1,52.9l0,0.1
		c10.2,33.8,12,64.3,10.3,81.5c-1.2,10.9-3.1,20.6-5.8,29.2l0,0c0,0-0.5,1.5-1.1,3.5c0,0,0,0.1,0,0.1c-0.7,1.9-1.5,4.2-2.3,6.1
		c-1.7,3.7,0.5,8.2,4.4,8.2c3.8,0,14.6-2.2,26.8-10.5c14-9.9,33.1-26.9,50.8-50.5c6.3-9.1,12.4-20.6,17.2-30.5
		c10-20.6,16-43,16.8-65.9C314.3,96.1,308.7,64.4,281,49.6z"/>
</g>
</svg>
