<?xml version="1.0" encoding="utf-8"?>
<!-- Generator: Adobe Illustrator 26.0.3, SVG Export Plug-In . SVG Version: 6.00 Build 0)  -->
<svg version="1.1" id="Layer_1" xmlns="http://www.w3.org/2000/svg" xmlns:xlink="http://www.w3.org/1999/xlink" x="0px" y="0px"
	 viewBox="0 0 500 213.17" style="enable-background:new 0 0 500 213.17;" xml:space="preserve">
<style type="text/css">
	.st0{fill:#1F428F;}
	.st1{fill:#22B9E0;}
</style>
<g>
	<rect x="39.55" y="145.29" class="st0" width="34.6" height="34.6"/>
	<polygon class="st0" points="169,179.89 193.65,179.89 193.65,32.85 39.55,32.85 39.55,57.5 169,57.5 	"/>
</g>
<g>
	<path class="st0" d="M243.22,100.24v6.49h-10.68v33.59h-8.04v-33.59h-10.68v-6.49H243.22z"/>
	<path class="st0" d="M269.75,140.32l-8.84-15.62h-3.79v15.62h-8.04v-40.08h15.04c3.1,0,5.74,0.55,7.92,1.64
		c2.18,1.09,3.82,2.57,4.91,4.42c1.09,1.86,1.64,3.93,1.64,6.23c0,2.64-0.77,5.02-2.3,7.15c-1.53,2.12-3.81,3.59-6.83,4.39
		l9.59,16.25H269.75z M257.11,118.67h6.72c2.18,0,3.81-0.53,4.88-1.58c1.07-1.05,1.61-2.52,1.61-4.39c0-1.84-0.54-3.26-1.61-4.28
		c-1.07-1.01-2.7-1.52-4.88-1.52h-6.72V118.67z"/>
	<path class="st0" d="M310.46,132.68h-15.96l-2.64,7.64h-8.44l14.41-40.14h9.36l14.41,40.14h-8.5L310.46,132.68z M308.28,126.25
		l-5.8-16.77l-5.8,16.77H308.28z"/>
	<path class="st0" d="M352.12,102.7c3.2,1.65,5.67,3.99,7.41,7.03c1.74,3.04,2.61,6.57,2.61,10.59c0,4.02-0.87,7.53-2.61,10.54
		c-1.74,3.01-4.21,5.33-7.41,6.98c-3.2,1.65-6.9,2.47-11.11,2.47h-14.01v-40.08h14.01C345.22,100.24,348.92,101.06,352.12,102.7z
		 M350.48,130.04c2.3-2.3,3.45-5.53,3.45-9.71c0-4.17-1.15-7.44-3.45-9.79c-2.3-2.35-5.55-3.53-9.76-3.53h-5.69v26.47h5.69
		C344.93,133.48,348.18,132.34,350.48,130.04z"/>
	<path class="st0" d="M376.21,106.72v10.05h13.5v6.37h-13.5v10.62h15.22v6.55h-23.26v-40.14h23.26v6.55H376.21z"/>
	<path class="st0" d="M419.39,140.32l-8.84-15.62h-3.79v15.62h-8.04v-40.08h15.04c3.1,0,5.74,0.55,7.92,1.64
		c2.18,1.09,3.82,2.57,4.91,4.42c1.09,1.86,1.64,3.93,1.64,6.23c0,2.64-0.77,5.02-2.3,7.15c-1.53,2.12-3.81,3.59-6.83,4.39
		l9.59,16.25H419.39z M406.75,118.67h6.72c2.18,0,3.81-0.53,4.88-1.58c1.07-1.05,1.61-2.52,1.61-4.39c0-1.84-0.54-3.26-1.61-4.28
		c-1.07-1.01-2.7-1.52-4.88-1.52h-6.72V118.67z"/>
	<path class="st0" d="M434.26,132.16v-6.32l18.78-26.87h9.36v26.19h5.05v7.01h-5.05v8.15h-8.04v-8.15H434.26z M454.87,107.59
		l-11.77,17.57h11.77V107.59z"/>
</g>
<g>
	<path class="st0" d="M232.53,152.79v20.25c0,2.04-0.63,3.68-1.88,4.92c-1.25,1.24-2.92,1.86-5.01,1.86c-2.17,0-3.9-0.66-5.19-1.97
		c-1.29-1.31-1.93-3.09-1.93-5.34h2.72c0.02,1.46,0.39,2.64,1.09,3.56c0.7,0.92,1.8,1.38,3.31,1.38c1.43,0,2.49-0.42,3.18-1.26
		c0.69-0.84,1.03-1.89,1.03-3.14v-20.25H232.53z"/>
	<path class="st0" d="M257.38,158.64v20.9h-2.68v-3.67c-0.61,1.3-1.56,2.3-2.83,2.99c-1.28,0.69-2.71,1.03-4.29,1.03
		c-2.5,0-4.54-0.77-6.12-2.32c-1.58-1.54-2.37-3.78-2.37-6.72v-12.21h2.64v11.91c0,2.27,0.57,4.01,1.7,5.21
		c1.14,1.2,2.69,1.8,4.65,1.8c2.02,0,3.62-0.64,4.82-1.91c1.2-1.28,1.8-3.15,1.8-5.63v-11.37H257.38z"/>
	<path class="st0" d="M264.82,178.19c-1.52-1.11-2.37-2.62-2.54-4.54h2.76c0.13,1.17,0.68,2.12,1.67,2.85
		c0.98,0.73,2.3,1.09,3.96,1.09c1.45,0,2.6-0.34,3.43-1.03c0.83-0.69,1.24-1.54,1.24-2.56c0-0.71-0.23-1.3-0.69-1.76
		c-0.46-0.46-1.04-0.82-1.74-1.09c-0.7-0.27-1.65-0.55-2.85-0.86c-1.56-0.41-2.82-0.82-3.79-1.22c-0.97-0.41-1.79-1.01-2.47-1.82
		c-0.68-0.8-1.01-1.88-1.01-3.24c0-1.02,0.31-1.96,0.92-2.83s1.48-1.56,2.6-2.07c1.12-0.51,2.4-0.77,3.83-0.77
		c2.25,0,4.06,0.57,5.44,1.7c1.38,1.14,2.12,2.7,2.22,4.69h-2.68c-0.08-1.22-0.56-2.21-1.44-2.97c-0.88-0.75-2.09-1.13-3.62-1.13
		c-1.35,0-2.45,0.32-3.29,0.96c-0.84,0.64-1.26,1.43-1.26,2.37c0,0.82,0.25,1.49,0.75,2.01c0.5,0.52,1.12,0.93,1.86,1.23
		c0.74,0.29,1.74,0.62,2.99,0.98c1.5,0.41,2.71,0.8,3.6,1.19c0.89,0.38,1.66,0.94,2.3,1.68c0.64,0.74,0.97,1.72,1,2.95
		c0,1.12-0.31,2.12-0.92,3c-0.61,0.88-1.47,1.58-2.56,2.09c-1.1,0.51-2.36,0.77-3.79,0.77C268.3,179.85,266.34,179.3,264.82,178.19z
		"/>
	<path class="st0" d="M286.51,160.9v12.98c0,1.28,0.24,2.16,0.73,2.64c0.48,0.49,1.34,0.73,2.57,0.73h2.45v2.3h-2.87
		c-1.89,0-3.29-0.44-4.21-1.32c-0.92-0.88-1.38-2.33-1.38-4.35V160.9h-2.91v-2.26h2.91v-5.24h2.72v5.24h5.74v2.26H286.51z"/>
	<path class="st0" d="M322.65,173.19h-12.17l-2.34,6.35h-2.83l9.76-26.42h3.02l9.72,26.42h-2.83L322.65,173.19z M321.84,170.97
		l-5.28-14.47l-5.28,14.47H321.84z"/>
	<path class="st0" d="M358.25,152.79v2.22h-7.43v24.54h-2.68v-24.54h-7.46v-2.22H358.25z"/>
	<path class="st0" d="M364.58,159.33c1.21-0.71,2.7-1.07,4.46-1.07v2.79h-0.73c-1.94,0-3.5,0.52-4.67,1.57
		c-1.17,1.05-1.76,2.79-1.76,5.25v11.68h-2.68v-20.9h2.68v3.71C362.47,161.06,363.37,160.05,364.58,159.33z"/>
	<path class="st0" d="M373.12,163.41c0.85-1.62,2.04-2.87,3.56-3.75c1.52-0.88,3.23-1.32,5.15-1.32c1.99,0,3.71,0.46,5.15,1.38
		c1.44,0.92,2.48,2.09,3.12,3.52v-4.59h2.68v20.9h-2.68v-4.63c-0.66,1.43-1.72,2.61-3.16,3.54s-3.16,1.4-5.15,1.4
		c-1.89,0-3.59-0.45-5.11-1.34c-1.52-0.89-2.71-2.16-3.56-3.79c-0.86-1.63-1.28-3.52-1.28-5.67S372.26,165.03,373.12,163.41z
		 M389.06,164.65c-0.69-1.28-1.63-2.26-2.81-2.95c-1.19-0.69-2.5-1.03-3.92-1.03c-1.48,0-2.81,0.33-3.98,1
		c-1.17,0.66-2.1,1.63-2.78,2.89c-0.68,1.26-1.01,2.76-1.01,4.5c0,1.71,0.34,3.21,1.01,4.5c0.68,1.29,1.6,2.27,2.78,2.95
		c1.17,0.68,2.5,1.01,3.98,1.01c1.43,0,2.74-0.34,3.92-1.03c1.19-0.69,2.12-1.67,2.81-2.95c0.69-1.28,1.03-2.76,1.03-4.44
		S389.75,165.93,389.06,164.65z"/>
	<path class="st0" d="M398.98,163.41c0.87-1.62,2.06-2.87,3.58-3.75c1.52-0.88,3.23-1.32,5.15-1.32c1.84,0,3.5,0.45,4.98,1.34
		s2.57,2.05,3.25,3.48v-11.94h2.68v28.33h-2.68v-4.67c-0.64,1.45-1.68,2.65-3.14,3.58s-3.17,1.4-5.13,1.4
		c-1.91,0-3.63-0.45-5.15-1.34c-1.52-0.89-2.71-2.16-3.56-3.79c-0.86-1.63-1.28-3.52-1.28-5.67S398.11,165.03,398.98,163.41z
		 M414.9,164.65c-0.69-1.28-1.63-2.26-2.81-2.95c-1.19-0.69-2.5-1.03-3.92-1.03c-1.48,0-2.81,0.33-3.98,1
		c-1.17,0.66-2.1,1.63-2.78,2.89c-0.68,1.26-1.01,2.76-1.01,4.5c0,1.71,0.34,3.21,1.01,4.5c0.68,1.29,1.6,2.27,2.78,2.95
		c1.17,0.68,2.5,1.01,3.98,1.01c1.43,0,2.74-0.34,3.92-1.03c1.19-0.69,2.12-1.67,2.81-2.95c0.69-1.28,1.03-2.76,1.03-4.44
		S415.59,165.93,414.9,164.65z"/>
	<path class="st0" d="M443.58,170.13h-17.34c0.08,1.58,0.46,2.93,1.15,4.06s1.59,1.97,2.72,2.55s2.35,0.86,3.67,0.86
		c1.74,0,3.2-0.42,4.38-1.26c1.19-0.84,1.97-1.98,2.35-3.41h2.83c-0.51,2.04-1.6,3.71-3.27,5c-1.67,1.29-3.77,1.93-6.3,1.93
		c-1.96,0-3.73-0.44-5.28-1.32c-1.56-0.88-2.78-2.13-3.66-3.75c-0.88-1.62-1.32-3.52-1.32-5.69c0-2.17,0.43-4.07,1.3-5.7
		c0.87-1.63,2.08-2.88,3.64-3.75c1.56-0.87,3.33-1.3,5.32-1.3c1.99,0,3.73,0.43,5.23,1.3c1.49,0.87,2.64,2.04,3.45,3.5
		c0.8,1.47,1.21,3.1,1.21,4.88C443.65,168.94,443.63,169.64,443.58,170.13z M440,163.96c-0.65-1.1-1.54-1.93-2.66-2.49
		c-1.12-0.56-2.35-0.84-3.67-0.84c-1.99,0-3.69,0.64-5.09,1.91s-2.18,3.08-2.33,5.4h14.7C440.96,166.39,440.65,165.06,440,163.96z"
		/>
	<path class="st0" d="M453.93,159.33c1.21-0.71,2.7-1.07,4.46-1.07v2.79h-0.73c-1.94,0-3.5,0.52-4.67,1.57
		c-1.17,1.05-1.76,2.79-1.76,5.25v11.68h-2.68v-20.9h2.68v3.71C451.82,161.06,452.72,160.05,453.93,159.33z"/>
</g>
</svg>
