<?xml version="1.0" encoding="utf-8"?>
<!-- Generator: Adobe Illustrator 26.0.3, SVG Export Plug-In . SVG Version: 6.00 Build 0)  -->
<svg version="1.1" id="Layer_1" xmlns="http://www.w3.org/2000/svg" xmlns:xlink="http://www.w3.org/1999/xlink" x="0px" y="0px"
	 viewBox="0 0 832.36 317.46" style="enable-background:new 0 0 832.36 317.46;" xml:space="preserve">
<style type="text/css">
	.st0{fill:#03A572;}
</style>
<g>
	<g>
		<path class="st0" d="M508.34,152.61l-16.59,63.62h-18.76l-10.15-41.87l-10.51,41.87h-18.76l-16.13-63.62h16.58l9.16,46.31
			l11.33-46.31h17.04l10.88,46.31l9.24-46.31H508.34z"/>
		<path class="st0" d="M531.63,165.03v12.87h20.76v11.96h-20.76v13.96h23.47v12.42h-38.97v-63.62h38.97v12.42H531.63z"/>
		<path class="st0" d="M597.61,216.23l-13.23-24.02h-3.72v24.02h-15.5v-63.62h26.01c5.01,0,9.29,0.88,12.83,2.63
			c3.53,1.75,6.17,4.16,7.93,7.21c1.75,3.05,2.63,6.45,2.63,10.2c0,4.23-1.19,8.01-3.58,11.33c-2.39,3.32-5.9,5.68-10.56,7.07
			l14.68,25.2H597.61z M580.66,181.25h9.61c2.84,0,4.97-0.7,6.39-2.09c1.42-1.39,2.13-3.35,2.13-5.89c0-2.42-0.71-4.32-2.13-5.71
			c-1.42-1.39-3.55-2.08-6.39-2.08h-9.61V181.25z"/>
		<path class="st0" d="M639.75,152.61v63.62h-15.5v-63.62H639.75z"/>
		<path class="st0" d="M692.41,152.61v12.42h-25.92v13.41h19.4v12.05h-19.4v25.74h-15.5v-63.62H692.41z"/>
		<path class="st0" d="M755.13,152.61l-22.02,42.6v21.03h-15.5v-21.03l-22.02-42.6h17.58l12.33,26.65l12.24-26.65H755.13z"/>
	</g>
	<g>
		<path class="st0" d="M459.14,240.32l-9.06,31.25h-4.57l-7.26-25.15l-7.53,25.15l-4.53,0.05l-8.74-31.29h4.35l6.81,26.5l7.53-26.5
			h4.57l7.17,26.41l6.86-26.41H459.14z"/>
		<path class="st0" d="M485.9,260.81h-19.64c0.15,2.42,0.98,4.31,2.49,5.67c1.51,1.36,3.34,2.04,5.49,2.04
			c1.76,0,3.23-0.41,4.42-1.23c1.18-0.82,2.01-1.92,2.49-3.3h4.39c-0.66,2.36-1.97,4.28-3.95,5.76c-1.97,1.48-4.42,2.22-7.35,2.22
			c-2.33,0-4.42-0.52-6.25-1.57c-1.84-1.05-3.28-2.53-4.33-4.46c-1.05-1.93-1.57-4.16-1.57-6.7c0-2.54,0.51-4.77,1.52-6.68
			c1.02-1.91,2.44-3.38,4.28-4.42c1.84-1.03,3.95-1.55,6.34-1.55c2.33,0,4.39,0.51,6.19,1.52c1.8,1.01,3.18,2.41,4.15,4.19
			c0.97,1.78,1.46,3.79,1.46,6.03C486.03,259.12,485.99,259.94,485.9,260.81z M480.79,253.48c-0.69-1.12-1.62-1.97-2.8-2.55
			c-1.18-0.58-2.49-0.88-3.93-0.88c-2.06,0-3.82,0.66-5.27,1.97c-1.45,1.32-2.28,3.14-2.49,5.47h15.51
			C481.82,255.94,481.48,254.6,480.79,253.48z"/>
		<path class="st0" d="M529.21,240.32l-11.79,31.25h-4.71l-11.79-31.25h4.35l9.82,26.94l9.82-26.94H529.21z"/>
		<path class="st0" d="M555.98,260.81h-19.64c0.15,2.42,0.98,4.31,2.49,5.67c1.51,1.36,3.34,2.04,5.49,2.04
			c1.76,0,3.23-0.41,4.42-1.23c1.18-0.82,2.01-1.92,2.49-3.3h4.39c-0.66,2.36-1.97,4.28-3.95,5.76c-1.97,1.48-4.43,2.22-7.35,2.22
			c-2.33,0-4.42-0.52-6.25-1.57c-1.84-1.05-3.28-2.53-4.33-4.46c-1.05-1.93-1.57-4.16-1.57-6.7c0-2.54,0.51-4.77,1.52-6.68
			c1.02-1.91,2.44-3.38,4.28-4.42c1.84-1.03,3.95-1.55,6.34-1.55c2.33,0,4.4,0.51,6.19,1.52c1.8,1.01,3.18,2.41,4.15,4.19
			c0.97,1.78,1.46,3.79,1.46,6.03C556.11,259.12,556.07,259.94,555.98,260.81z M550.87,253.48c-0.69-1.12-1.62-1.97-2.8-2.55
			c-1.18-0.58-2.49-0.88-3.93-0.88c-2.06,0-3.82,0.66-5.27,1.97c-1.45,1.32-2.28,3.14-2.49,5.47h15.51
			C551.9,255.94,551.55,254.6,550.87,253.48z"/>
		<path class="st0" d="M568.64,247.72c1.33-0.78,2.95-1.17,4.87-1.17v4.22h-1.08c-4.57,0-6.86,2.48-6.86,7.44v13.36h-4.08V247h4.08
			v3.99C566.29,249.59,567.31,248.5,568.64,247.72z"/>
		<path class="st0" d="M578.35,242.2c-0.54-0.54-0.81-1.2-0.81-1.97s0.27-1.43,0.81-1.97c0.54-0.54,1.2-0.81,1.97-0.81
			c0.75,0,1.38,0.27,1.9,0.81c0.52,0.54,0.79,1.2,0.79,1.97s-0.26,1.43-0.79,1.97c-0.52,0.54-1.16,0.81-1.9,0.81
			C579.54,243.01,578.89,242.74,578.35,242.2z M582.29,247v24.57h-4.08V247H582.29z"/>
		<path class="st0" d="M599.24,250.36h-5.16v21.21H590v-21.21h-3.18V247H590v-1.75c0-2.75,0.71-4.76,2.13-6.03
			c1.42-1.27,3.7-1.91,6.84-1.91v3.41c-1.79,0-3.06,0.35-3.79,1.06c-0.73,0.7-1.1,1.86-1.1,3.47V247h5.16V250.36z"/>
		<path class="st0" d="M625.15,247l-14.8,36.14h-4.21l4.84-11.84l-9.91-24.3h4.53l7.71,19.91l7.62-19.91H625.15z"/>
		<path class="st0" d="M630.53,271.03c-0.54-0.54-0.81-1.2-0.81-1.97c0-0.78,0.27-1.43,0.81-1.97c0.54-0.54,1.2-0.81,1.97-0.81
			c0.75,0,1.38,0.27,1.91,0.81c0.52,0.54,0.79,1.2,0.79,1.97c0,0.78-0.26,1.43-0.79,1.97s-1.16,0.81-1.91,0.81
			C631.73,271.84,631.07,271.57,630.53,271.03z M634.52,240.32l-0.49,22.42h-3.41l-0.49-22.42H634.52z"/>
	</g>
	<path class="st0" d="M233.59,190.12l49.75,82.47L419.18,47.41H48l135.84,225.18L233.59,190.12z M376.41,71.56l-93.07,154.28
		l-35.65-59.1l57.42-95.18H376.41z M276.91,71.56l-43.32,71.81l-43.32-71.81H276.91z M162.06,71.56l57.43,95.18l-35.65,59.1
		L90.77,71.56H162.06z"/>
</g>
</svg>
