<svg width="108" height="32" viewBox="0 0 108 32" fill="none" xmlns="http://www.w3.org/2000/svg">
<path d="M68.728 6.80787V9.17673H63.7141V11.1027H68.0026V13.3368H63.7141V17.8307H60.3052V6.80787H68.728ZM73.5558 6.80787L75.5139 10.1943L77.4109 6.80787H81.1183L77.6837 12.1492L81.4457 17.8372H77.6099L75.4368 14.2933L73.2636 17.8372H69.4471L73.2636 12.0914L69.7938 6.80787H73.5558ZM85.5641 17.8436C85.622 17.3845 85.731 16.9448 85.8948 16.5276C86.0585 16.107 86.2735 15.6929 86.5432 15.2821C86.8128 14.8808 87.198 14.4475 87.6955 13.9756C88.1931 13.5038 88.8126 12.9934 89.5541 12.4413C90.4432 11.7832 91.0114 11.2793 91.2554 10.9359C91.5121 10.5827 91.6405 10.2489 91.6405 9.92786C91.6405 9.76416 91.6084 9.6101 91.541 9.46243C91.4768 9.31476 91.3837 9.18638 91.2681 9.07729C91.1527 8.96819 91.0146 8.87827 90.854 8.81401C90.6967 8.74663 90.5203 8.71456 90.334 8.71456C90.1382 8.71456 89.9618 8.7435 89.8012 8.8045C89.6408 8.86223 89.5027 8.95855 89.3775 9.09006C89.2555 9.2217 89.1528 9.39505 89.0694 9.60697C88.9827 9.82203 88.9186 10.0852 88.8767 10.3966L85.8017 10.1334C85.914 9.5074 86.0617 8.97458 86.2478 8.53482C86.4308 8.09507 86.694 7.73873 87.0279 7.46268C87.365 7.18663 87.7918 6.98122 88.3118 6.84632C88.8319 6.71155 89.4802 6.63452 90.257 6.61523C90.7963 6.61523 91.2714 6.64417 91.6822 6.70517C92.0932 6.7629 92.4559 6.85597 92.7704 6.98122C93.085 7.10634 93.3545 7.26691 93.5825 7.45629C93.8072 7.6488 94.0062 7.8735 94.1763 8.13039C94.5263 8.64392 94.7027 9.20892 94.7027 9.82515C94.7027 10.1622 94.6514 10.4961 94.552 10.817C94.4524 11.1413 94.3047 11.4558 94.1122 11.764C93.9228 12.0658 93.6468 12.3835 93.2872 12.7173C92.9277 13.0544 92.4847 13.4042 91.9583 13.7669C91.6438 13.9885 91.3837 14.1715 91.1815 14.3223C90.976 14.4732 90.8252 14.5919 90.7257 14.6817C90.6262 14.7684 90.5139 14.8647 90.3919 14.974C90.2699 15.0798 90.1382 15.2018 90.0002 15.3398H94.7798V17.8436H85.5641ZM95.7653 15.7828V13.2694L101.341 6.61523H104.018V13.3947H105.401V15.7828H104.018V17.8436H101.341V15.7828H95.7653ZM101.341 9.92473L98.3878 13.3947H101.341V9.92473Z" fill="#121A2D"/>
<path d="M63.0015 29.7876C65.2589 29.7876 66.3849 28.9759 66.3849 27.3547C66.3849 26.7577 66.2409 26.281 65.9528 25.9249C65.6622 25.5687 65.2405 25.3383 64.6827 25.2309V25.1838C65.1331 25.0817 65.484 24.8617 65.738 24.5212C65.9894 24.1808 66.1178 23.7461 66.1178 23.2197C66.1178 22.3817 65.8612 21.7741 65.3453 21.3971C64.8319 21.0226 64.0044 20.834 62.8653 20.834C62.4856 20.834 62.098 20.8472 61.6973 20.8732C61.2993 20.8968 60.8226 20.9388 60.27 20.9938V29.6043C60.71 29.6645 61.1657 29.7117 61.6371 29.7405C62.1084 29.7719 62.5615 29.7876 63.0015 29.7876ZM63.0485 28.8291C62.6846 28.8291 62.3677 28.8213 62.0928 28.8056C61.8204 28.7899 61.6109 28.7611 61.4669 28.7218V25.7049H63.0643C63.8002 25.7049 64.3292 25.8254 64.6487 26.0664C64.9681 26.3072 65.1279 26.7053 65.1279 27.2631C65.1279 28.3054 64.4339 28.8291 63.0485 28.8291ZM63.0015 24.8094H61.4669V21.8685C61.6973 21.8397 61.9252 21.8161 62.1504 21.8003C62.3756 21.7847 62.6401 21.7767 62.9413 21.7767C63.6221 21.7767 64.1118 21.8947 64.4104 22.1303C64.7089 22.366 64.8581 22.751 64.8581 23.2878C64.8581 23.8403 64.7193 24.2332 64.4418 24.4636C64.1616 24.694 63.6824 24.8094 63.0015 24.8094ZM71.1276 26.488L72.9005 29.6645H74.2649L72.2537 26.2576C72.8533 26.0585 73.296 25.7521 73.5866 25.3383C73.8747 24.9219 74.0187 24.372 74.0187 23.6807C74.0187 22.6934 73.7123 21.9705 73.0996 21.5097C72.4841 21.0488 71.502 20.8184 70.1534 20.8184C69.4358 20.8184 68.7131 20.8812 67.9824 21.0094V29.6645H69.2394V26.4722C69.3887 26.4932 69.5564 26.509 69.7422 26.5194C69.9282 26.5298 70.0906 26.535 70.2293 26.535C70.3995 26.535 70.5541 26.5298 70.6929 26.5194L71.1276 26.488ZM70.3681 25.5137C70.1482 25.5137 69.936 25.5085 69.7344 25.4981C69.5328 25.4875 69.3678 25.4667 69.2394 25.4379V21.9313C69.4176 21.8999 69.614 21.8789 69.8234 21.8685C70.033 21.8605 70.2189 21.8553 70.3839 21.8553C71.2323 21.8553 71.8346 21.9967 72.1934 22.2796C72.5521 22.565 72.7303 23.0364 72.7303 23.6963C72.7303 24.3563 72.5495 24.8224 72.1856 25.1C71.8216 25.3749 71.2166 25.5137 70.3681 25.5137ZM79.0285 29.7876C80.2463 29.7876 81.1654 29.4157 81.7887 28.6746C82.4093 27.9335 82.721 26.8127 82.721 25.3147C82.721 23.8167 82.4093 22.6908 81.7887 21.9417C81.1654 21.1928 80.2463 20.8184 79.0285 20.8184C77.8265 20.8184 76.9151 21.1928 76.2919 21.9417C75.666 22.6908 75.3544 23.8167 75.3544 25.3147C75.3544 26.8127 75.666 27.9335 76.2919 28.6746C76.9151 29.4157 77.8265 29.7876 79.0285 29.7876ZM79.0285 28.7375C78.1905 28.7375 77.5802 28.4652 77.2006 27.9257C76.8182 27.3863 76.6271 26.5168 76.6271 25.3147C76.6271 24.1075 76.8209 23.2302 77.2084 22.6854C77.5934 22.1408 78.2009 21.8685 79.0285 21.8685C79.8691 21.8685 80.4793 22.1408 80.8642 22.6854C81.2466 23.2302 81.4378 24.1075 81.4378 25.3147C81.4378 26.5168 81.2492 27.3863 80.8722 27.9257C80.4924 28.4652 79.8796 28.7375 79.0285 28.7375ZM84.3708 20.9414V29.6645H85.6277V25.7521H87.055L89.6476 29.6645H91.0671L88.299 25.4981L87.8302 25.2153V25.1367L88.2676 24.8382L90.8444 20.9414H89.4329L86.9791 24.6994H85.6277V20.9414H84.3708ZM92.2428 20.9414V29.6645H97.758V28.6275H93.4998V25.7678H97.3206V24.7464H93.4998V21.9837H97.6664V20.9414H92.2428ZM102.569 26.488L104.342 29.6645H105.706L103.695 26.2576C104.295 26.0585 104.737 25.7521 105.028 25.3383C105.316 24.9219 105.46 24.372 105.46 23.6807C105.46 22.6934 105.153 21.9705 104.541 21.5097C103.925 21.0488 102.943 20.8184 101.595 20.8184C100.877 20.8184 100.154 20.8812 99.4236 21.0094V29.6645H100.681V26.4722C100.83 26.4932 100.998 26.509 101.183 26.5194C101.369 26.5298 101.532 26.535 101.67 26.535C101.841 26.535 101.995 26.5298 102.134 26.5194L102.569 26.488ZM101.809 25.5137C101.589 25.5137 101.377 25.5085 101.176 25.4981C100.974 25.4875 100.809 25.4667 100.681 25.4379V21.9313C100.859 21.8999 101.055 21.8789 101.265 21.8685C101.474 21.8605 101.66 21.8553 101.825 21.8553C102.674 21.8553 103.276 21.9967 103.635 22.2796C103.993 22.565 104.171 23.0364 104.171 23.6963C104.171 24.3563 103.991 24.8224 103.627 25.1C103.263 25.3749 102.658 25.5137 101.809 25.5137Z" fill="#95A4B9"/>
<path fill-rule="evenodd" clip-rule="evenodd" d="M21.7096 2H23.7108C24.636 2 25.3929 2.75686 25.3929 3.68212V6.85985H25.3943L25.3952 9.14986H25.3929V12.3583C25.3929 13.2836 24.636 14.0405 23.7108 14.0405H21.7096C20.7843 14.0405 20.0275 13.2836 20.0275 12.3583V9.14804L3.34715 9.14243C2.71489 9.14243 2.20215 8.62968 2.20215 7.99742C2.20215 7.36516 2.71489 6.85242 3.34715 6.85242L20.0275 6.85802V3.68212C20.0275 2.75686 20.7843 2 21.7096 2ZM31.8952 6.86116C32.28 6.86116 32.6206 7.05105 32.8282 7.34236L47.0296 27.3659L49.2254 27.3799C49.8577 27.3822 50.3683 27.897 50.366 28.5293C50.3636 29.1616 49.8488 29.6722 49.2165 29.6699C47.4477 29.6587 45.6817 29.6639 43.9122 29.6527C43.5598 29.6683 43.2048 29.5217 42.9668 29.2257L42.7975 29.0153L42.7571 28.9615L28.7083 9.1509L26.7692 9.15025L26.7683 6.86024C28.4773 6.86089 30.1863 6.86063 31.8952 6.86116Z" fill="#121A2D"/>
<path fill-rule="evenodd" clip-rule="evenodd" d="M6.7609 10.231H8.7587C9.68487 10.231 10.4425 10.9887 10.4425 11.9148V17.0574H14.6538V15.9705C14.6538 15.0443 15.4115 14.2867 16.3376 14.2867H18.3354C19.2616 14.2867 20.0192 15.0443 20.0192 15.9705C20.0192 17.4652 20.0192 18.9533 20.0192 20.4473C20.0192 21.3735 19.2616 22.1311 18.3354 22.1311H16.3376C15.4115 22.1311 14.6538 21.3735 14.6538 20.4473V19.3565H10.4425V27.9505C10.4425 28.8767 9.68487 29.6343 8.7587 29.6343H6.7609C5.83473 29.6343 5.07709 28.8767 5.07709 27.9505V11.9148C5.07709 10.9887 5.83473 10.231 6.7609 10.231ZM21.4039 17.0574H22.0255C22.4783 17.0574 22.8698 17.3192 23.0572 17.6997L28.7338 26.7643L42.9682 7.30458C43.205 6.98135 43.5796 6.81843 43.9521 6.8372C45.7255 6.82808 47.4966 6.83237 49.2696 6.82325C49.9018 6.8209 50.4166 7.33157 50.419 7.96383C50.4213 8.59609 49.9107 9.11092 49.2784 9.11326L47.0821 9.1246L32.4309 29.1542L32.4293 29.153C32.2209 29.4369 31.8849 29.6212 31.5059 29.6212C30.4886 29.62 29.4712 29.6188 28.4541 29.6176C28.0732 29.6159 27.701 29.4255 27.4842 29.0788L21.4048 19.3707L21.4039 17.0574Z" fill="#64C351"/>
</svg>
