<svg id="svg" version="1.1" xmlns="http://www.w3.org/2000/svg" xmlns:xlink="http://www.w3.org/1999/xlink" width="400" height="111.96860693263571" viewBox="0, 0, 400,111.96860693263571"><g id="svgg"><path id="path0" d="M129.640 14.192 C 129.242 14.573,128.745 15.117,128.535 15.401 C 128.325 15.685,128.087 15.917,128.007 15.917 C 127.831 15.917,127.167 16.661,127.167 16.859 C 127.167 16.936,127.059 17.000,126.928 17.000 C 126.797 17.000,126.642 17.148,126.584 17.330 C 126.527 17.511,126.428 17.644,126.365 17.624 C 126.302 17.605,125.902 17.944,125.477 18.378 C 125.051 18.812,124.751 19.171,124.810 19.177 C 124.869 19.183,124.748 19.256,124.542 19.339 C 124.335 19.421,124.167 19.604,124.167 19.745 C 124.167 19.885,124.093 20.000,124.002 20.000 C 123.788 20.000,123.167 20.532,123.167 20.716 C 123.167 20.916,122.725 21.333,122.512 21.333 C 122.414 21.333,122.333 21.448,122.333 21.589 C 122.333 21.729,122.229 21.884,122.101 21.933 C 121.974 21.982,121.374 22.505,120.770 23.094 C 120.166 23.684,119.599 24.167,119.512 24.167 C 119.425 24.167,119.299 24.253,119.234 24.359 C 119.156 24.486,119.195 24.509,119.349 24.428 C 119.478 24.360,119.396 24.459,119.167 24.648 C 118.938 24.838,118.689 24.994,118.615 24.996 C 118.541 24.998,118.527 25.075,118.583 25.167 C 118.640 25.258,118.602 25.333,118.498 25.333 C 118.259 25.333,117.833 25.753,117.833 25.988 C 117.833 26.086,117.770 26.167,117.693 26.167 C 117.615 26.167,117.161 26.542,116.683 27.000 C 116.205 27.458,115.739 27.833,115.647 27.833 C 115.555 27.833,115.527 27.908,115.583 28.000 C 115.640 28.092,115.614 28.167,115.526 28.167 C 115.438 28.167,114.593 28.935,113.648 29.875 C 112.703 30.815,111.889 31.571,111.840 31.556 C 111.790 31.542,111.563 31.783,111.333 32.094 C 111.104 32.404,110.849 32.660,110.767 32.662 C 110.538 32.669,109.505 33.783,109.621 33.899 C 109.677 33.954,109.649 34.000,109.559 34.000 C 109.470 34.000,109.232 34.153,109.031 34.340 C 108.831 34.527,108.667 34.636,108.667 34.583 C 108.667 34.530,108.562 34.584,108.434 34.702 C 108.306 34.820,108.236 34.973,108.277 35.042 C 108.319 35.110,108.236 35.167,108.093 35.167 C 107.950 35.167,107.852 35.249,107.875 35.349 C 107.898 35.449,107.776 35.618,107.603 35.724 C 107.431 35.830,106.955 36.270,106.544 36.703 C 106.134 37.135,105.656 37.534,105.483 37.589 C 105.309 37.644,105.167 37.768,105.167 37.865 C 105.167 37.961,104.829 38.363,104.417 38.759 C 104.004 39.154,103.667 39.431,103.667 39.374 C 103.667 39.317,103.517 39.431,103.333 39.628 C 103.150 39.825,103.000 40.033,103.000 40.091 C 103.000 40.225,102.292 40.820,102.125 40.828 C 102.056 40.831,102.000 38.851,102.000 36.428 L 102.000 32.023 98.277 32.006 C 96.229 31.997,94.429 32.038,94.277 32.096 C 94.025 32.193,94.000 32.850,94.000 39.508 C 94.000 44.564,93.945 46.848,93.820 46.925 C 93.721 46.986,93.681 47.202,93.732 47.404 C 93.785 47.614,93.706 47.940,93.550 48.164 C 93.342 48.461,93.333 48.526,93.513 48.432 C 93.643 48.364,93.611 48.422,93.442 48.560 C 93.262 48.706,93.186 48.896,93.259 49.015 C 93.339 49.145,93.315 49.175,93.192 49.099 C 93.082 49.031,93.000 49.080,93.000 49.213 C 93.000 49.485,91.785 50.806,91.474 50.872 C 91.357 50.896,91.147 51.039,91.006 51.188 C 90.381 51.851,85.667 52.412,85.667 51.823 C 85.667 51.726,85.741 51.693,85.831 51.749 C 85.923 51.805,85.956 51.745,85.905 51.613 C 85.855 51.483,85.936 51.330,86.084 51.273 C 86.233 51.216,86.316 51.106,86.268 51.030 C 86.221 50.953,86.294 50.521,86.430 50.070 C 86.567 49.619,86.709 48.875,86.747 48.417 C 86.784 47.958,86.821 47.546,86.829 47.500 C 86.837 47.454,86.860 43.955,86.880 39.725 L 86.917 32.033 83.167 32.015 C 81.104 32.005,79.320 32.060,79.201 32.138 C 79.031 32.249,78.988 33.712,78.996 39.182 C 79.007 46.512,78.938 47.381,78.236 48.723 C 77.733 49.686,76.645 50.833,76.235 50.833 C 76.075 50.833,75.993 50.882,76.053 50.942 C 76.197 51.086,75.657 51.488,75.311 51.495 C 75.161 51.498,74.844 51.601,74.606 51.724 C 74.368 51.847,73.760 51.962,73.254 51.978 L 72.333 52.008 72.333 42.004 L 72.333 32.000 68.343 32.000 C 66.083 32.000,64.312 32.067,64.258 32.154 C 64.206 32.239,64.162 39.307,64.161 47.862 L 64.158 63.417 60.288 63.385 C 54.266 63.336,53.124 63.288,52.542 63.061 C 52.244 62.945,52.000 62.887,52.000 62.931 C 52.000 63.027,51.365 62.699,51.043 62.436 C 50.463 61.962,49.444 60.962,49.667 61.086 C 49.851 61.188,49.841 61.138,49.629 60.895 C 49.303 60.522,48.855 59.340,48.756 58.589 C 48.719 58.311,48.684 52.233,48.678 45.083 L 48.667 32.083 44.662 32.131 L 40.656 32.178 40.677 45.547 C 40.697 58.865,40.749 60.241,41.281 61.500 C 41.339 61.637,41.375 61.805,41.361 61.871 C 41.347 61.938,41.525 62.332,41.757 62.746 C 41.988 63.161,42.135 63.500,42.083 63.500 C 42.031 63.500,42.175 63.775,42.403 64.111 C 42.632 64.447,42.786 64.775,42.747 64.839 C 42.707 64.903,42.823 65.090,43.004 65.254 C 43.185 65.418,43.333 65.657,43.333 65.786 C 43.333 65.914,43.400 65.978,43.482 65.928 C 43.637 65.832,44.268 66.659,44.204 66.875 C 44.183 66.944,44.234 67.000,44.317 67.000 C 44.400 67.000,44.889 67.390,45.404 67.866 C 45.920 68.342,46.462 68.749,46.609 68.771 C 46.756 68.793,46.961 68.901,47.063 69.013 C 47.206 69.167,47.190 69.183,47.000 69.081 C 46.852 69.001,46.807 69.008,46.889 69.098 C 46.965 69.182,47.078 69.255,47.139 69.262 C 47.401 69.290,48.167 69.732,48.167 69.855 C 48.167 69.929,48.291 69.942,48.444 69.883 C 48.647 69.805,48.684 69.837,48.583 70.000 C 48.485 70.159,48.518 70.195,48.699 70.126 C 48.838 70.073,49.169 70.172,49.435 70.347 C 49.700 70.521,50.085 70.665,50.292 70.666 C 50.498 70.666,50.667 70.739,50.667 70.828 C 50.667 70.917,50.780 70.946,50.919 70.893 C 51.057 70.840,51.282 70.888,51.417 71.000 C 51.552 71.112,51.773 71.161,51.909 71.109 C 52.045 71.057,52.196 71.079,52.244 71.158 C 52.430 71.459,72.113 71.379,72.229 71.077 C 72.287 70.928,72.333 68.375,72.333 65.403 C 72.333 60.375,72.354 59.999,72.625 59.983 C 72.785 59.973,73.179 59.943,73.500 59.916 C 73.821 59.889,74.590 59.841,75.208 59.809 C 75.827 59.776,76.333 59.694,76.333 59.625 C 76.333 59.556,76.436 59.500,76.562 59.500 C 76.892 59.500,78.885 58.847,78.993 58.704 C 79.131 58.519,80.234 57.986,80.372 58.038 C 80.439 58.063,80.612 57.915,80.756 57.708 C 80.901 57.502,81.098 57.333,81.195 57.333 C 81.292 57.333,81.625 57.057,81.934 56.720 C 82.643 55.945,82.639 55.939,82.678 57.879 C 82.710 59.430,82.692 59.520,82.272 59.940 C 82.031 60.181,81.828 60.312,81.822 60.231 C 81.815 60.150,81.756 60.220,81.690 60.387 C 81.624 60.555,81.523 60.692,81.465 60.693 C 81.248 60.695,79.919 62.075,79.972 62.243 C 80.003 62.338,79.973 62.362,79.905 62.294 C 79.838 62.227,79.676 62.302,79.546 62.461 C 79.415 62.620,79.356 62.656,79.414 62.542 C 79.472 62.427,79.476 62.333,79.422 62.333 C 79.369 62.333,79.252 62.525,79.163 62.760 C 79.074 62.995,78.925 63.140,78.834 63.084 C 78.742 63.027,78.667 63.099,78.667 63.244 C 78.667 63.389,78.498 63.575,78.292 63.656 C 78.085 63.737,77.767 64.011,77.583 64.264 C 77.063 64.983,76.457 65.493,76.261 65.376 C 76.163 65.317,76.186 65.396,76.312 65.551 C 76.518 65.806,77.073 65.833,81.994 65.833 L 87.447 65.833 88.432 64.901 C 88.973 64.388,89.660 63.779,89.958 63.548 C 90.256 63.316,90.500 63.019,90.500 62.887 C 90.500 62.755,90.575 62.693,90.667 62.750 C 90.758 62.807,90.833 62.736,90.833 62.593 C 90.833 62.450,90.902 62.333,90.987 62.333 C 91.071 62.333,91.463 62.015,91.857 61.625 C 92.251 61.235,92.637 60.937,92.716 60.962 C 92.794 60.988,92.815 60.939,92.763 60.854 C 92.710 60.769,92.899 60.552,93.182 60.373 C 93.465 60.194,93.690 59.999,93.682 59.940 C 93.673 59.881,93.685 59.845,93.708 59.858 C 93.731 59.872,94.210 59.426,94.773 58.867 C 95.335 58.308,95.841 57.897,95.898 57.953 C 95.954 58.009,96.000 57.931,96.000 57.778 C 96.000 57.625,96.112 57.500,96.250 57.500 C 96.388 57.500,96.500 57.437,96.500 57.360 C 96.500 57.283,96.688 57.135,96.917 57.030 L 97.333 56.840 97.333 58.422 L 97.333 60.003 112.750 59.994 C 121.229 59.989,128.167 59.926,128.167 59.854 C 128.167 59.783,128.502 59.739,128.913 59.757 C 129.323 59.774,129.624 59.732,129.581 59.663 C 129.538 59.593,129.746 59.497,130.043 59.450 C 130.621 59.357,131.250 59.209,131.250 59.166 C 131.250 59.151,131.470 59.104,131.739 59.060 C 132.008 59.016,132.310 58.867,132.412 58.728 C 132.513 58.590,132.668 58.497,132.756 58.521 C 133.030 58.598,134.347 57.904,134.212 57.754 C 134.141 57.677,134.203 57.656,134.348 57.708 C 134.517 57.768,134.788 57.602,135.092 57.253 C 135.377 56.927,135.669 56.742,135.813 56.797 C 135.961 56.854,136.011 56.819,135.941 56.707 C 135.879 56.606,135.895 56.482,135.977 56.431 C 136.060 56.380,136.139 57.093,136.155 58.044 C 136.171 58.983,136.245 59.811,136.320 59.886 C 136.451 60.017,146.811 59.931,147.667 59.792 C 147.896 59.754,148.215 59.673,148.375 59.612 C 149.041 59.356,149.256 59.277,149.375 59.244 C 149.444 59.224,149.537 59.190,149.583 59.167 C 149.686 59.116,149.947 59.049,150.155 59.021 C 150.240 59.009,150.410 58.906,150.532 58.792 C 150.824 58.519,151.944 57.949,152.099 57.995 C 152.166 58.014,152.287 57.911,152.368 57.765 C 152.450 57.619,152.600 57.500,152.701 57.500 C 152.803 57.500,153.202 57.157,153.587 56.737 C 154.458 55.788,154.530 55.909,154.487 58.245 L 154.456 59.917 160.186 59.909 C 164.025 59.904,166.097 59.839,166.462 59.711 C 166.761 59.607,166.963 59.592,166.910 59.677 C 166.857 59.763,166.893 59.833,166.990 59.833 C 167.087 59.833,167.167 59.777,167.167 59.707 C 167.167 59.584,168.174 59.187,168.667 59.116 C 168.804 59.097,169.104 58.958,169.333 58.808 C 169.563 58.657,169.934 58.480,170.159 58.412 C 170.384 58.345,170.671 58.186,170.797 58.060 C 170.924 57.934,171.096 57.873,171.180 57.925 C 171.264 57.977,171.333 57.908,171.333 57.771 C 171.333 57.634,171.495 57.471,171.692 57.408 C 171.890 57.346,172.309 57.059,172.624 56.772 C 172.939 56.485,173.304 56.189,173.435 56.115 C 173.566 56.040,173.630 55.909,173.577 55.823 C 173.524 55.737,173.565 55.667,173.669 55.667 C 173.923 55.667,174.343 55.232,174.214 55.103 C 174.158 55.046,174.194 55.000,174.294 55.000 C 174.395 55.000,174.527 54.844,174.587 54.654 C 174.648 54.464,174.737 54.348,174.786 54.397 C 174.926 54.537,176.291 52.329,176.319 51.917 C 176.325 51.825,176.431 51.632,176.554 51.489 C 176.677 51.345,176.790 51.101,176.806 50.947 C 176.821 50.793,176.846 50.554,176.861 50.417 C 176.876 50.279,176.949 50.167,177.023 50.167 C 177.096 50.167,177.113 50.054,177.060 49.917 C 177.008 49.779,177.035 49.667,177.121 49.667 C 177.372 49.667,177.372 49.658,177.444 40.636 L 177.513 32.022 173.590 32.006 L 169.667 31.990 169.654 39.203 C 169.642 46.447,169.616 47.117,169.342 47.392 C 169.260 47.474,169.232 47.644,169.281 47.770 C 169.329 47.897,169.280 48.000,169.171 48.000 C 169.061 48.000,169.007 48.094,169.049 48.208 C 169.200 48.620,167.483 50.833,167.013 50.833 C 166.914 50.833,166.683 50.983,166.500 51.167 C 166.317 51.350,166.032 51.500,165.867 51.500 C 165.702 51.500,165.473 51.594,165.359 51.708 C 165.116 51.952,157.500 52.119,157.500 51.880 C 157.500 51.802,157.650 51.312,157.833 50.790 C 158.017 50.268,158.167 49.652,158.167 49.421 C 158.167 49.189,158.254 49.000,158.361 49.000 C 158.468 49.000,158.508 48.953,158.450 48.895 C 158.392 48.837,158.420 48.649,158.512 48.478 C 158.625 48.267,158.623 48.167,158.506 48.167 C 158.411 48.167,158.333 48.087,158.333 47.990 C 158.333 47.893,158.390 47.848,158.458 47.891 C 158.654 48.012,158.613 32.272,158.417 32.128 C 158.217 31.981,151.412 31.961,150.872 32.106 L 150.494 32.207 150.503 39.609 C 150.509 43.680,150.480 47.065,150.440 47.130 C 150.399 47.196,150.320 47.550,150.263 47.917 C 150.206 48.283,150.068 48.659,149.955 48.751 C 149.842 48.843,149.728 49.021,149.701 49.146 C 149.634 49.464,148.082 51.000,147.828 51.000 C 147.714 51.000,147.513 51.131,147.381 51.292 C 147.250 51.452,147.199 51.475,147.268 51.342 C 147.337 51.210,147.136 51.285,146.822 51.509 C 146.175 51.970,139.861 52.261,139.449 51.849 C 139.317 51.717,139.318 51.667,139.451 51.667 C 139.553 51.667,139.597 51.518,139.548 51.333 C 139.500 51.147,139.543 51.000,139.647 51.000 C 139.750 51.000,139.833 50.779,139.833 50.510 C 139.833 50.240,139.898 49.980,139.978 49.931 C 140.335 49.710,140.610 44.465,140.286 44.043 C 140.199 43.929,140.164 43.646,140.208 43.414 C 140.252 43.182,140.222 42.951,140.142 42.901 C 140.061 42.851,140.038 42.740,140.091 42.654 C 140.144 42.568,140.068 42.378,139.922 42.231 C 139.766 42.076,139.697 41.833,139.756 41.649 C 139.814 41.464,139.776 41.333,139.664 41.333 C 139.559 41.333,139.505 41.240,139.546 41.125 C 139.586 41.010,139.480 40.717,139.309 40.473 C 139.125 40.210,139.044 39.912,139.111 39.738 C 139.186 39.542,139.161 39.484,139.033 39.563 C 138.917 39.635,138.802 39.517,138.737 39.257 C 138.678 39.024,138.564 38.833,138.482 38.833 C 138.400 38.833,138.333 38.721,138.333 38.583 C 138.333 38.446,138.256 38.333,138.161 38.333 C 138.067 38.333,137.941 38.202,137.881 38.042 C 137.822 37.881,137.625 37.619,137.444 37.458 C 137.264 37.298,137.157 37.167,137.208 37.167 C 137.367 37.167,135.784 35.708,135.000 35.133 C 134.267 34.595,132.396 33.613,132.278 33.704 C 132.245 33.729,132.097 33.650,131.950 33.527 C 131.802 33.405,131.603 33.353,131.507 33.412 C 131.412 33.471,131.333 33.440,131.333 33.343 C 131.333 33.246,131.188 33.167,131.010 33.167 C 130.832 33.167,130.639 33.090,130.582 32.997 C 130.524 32.904,130.407 32.871,130.322 32.924 C 130.236 32.977,130.073 32.961,129.958 32.890 C 129.844 32.818,129.600 32.745,129.417 32.727 C 129.233 32.708,128.746 32.647,128.333 32.591 C 127.921 32.535,126.571 32.444,125.333 32.388 L 123.082 32.287 124.033 31.269 C 124.555 30.708,125.064 30.175,125.163 30.083 C 125.262 29.992,125.744 29.526,126.234 29.048 C 126.724 28.571,127.171 28.227,127.229 28.284 C 127.286 28.342,127.333 28.292,127.333 28.174 C 127.333 27.922,128.929 26.333,129.182 26.333 C 129.276 26.333,129.318 26.277,129.275 26.208 C 129.233 26.139,129.491 25.862,129.849 25.592 C 130.207 25.323,130.500 25.037,130.500 24.956 C 130.500 24.759,130.955 24.314,131.119 24.350 C 131.191 24.366,131.324 24.219,131.415 24.023 C 131.505 23.827,131.625 23.667,131.681 23.667 C 131.864 23.667,132.443 23.091,132.646 22.708 C 132.756 22.502,132.916 22.333,133.002 22.333 C 133.206 22.333,135.000 20.512,135.000 20.305 C 135.000 20.218,135.075 20.193,135.167 20.250 C 135.258 20.307,135.333 20.258,135.333 20.143 C 135.333 20.027,135.565 19.694,135.848 19.402 C 136.219 19.018,136.305 18.835,136.155 18.743 C 136.009 18.653,135.991 18.684,136.092 18.849 C 136.172 18.978,135.292 18.131,134.137 16.967 C 132.983 15.803,132.002 14.886,131.958 14.930 C 131.914 14.974,131.759 14.828,131.613 14.605 C 131.466 14.382,131.125 14.041,130.855 13.849 L 130.363 13.498 129.640 14.192 M342.064 18.698 C 342.025 18.761,341.846 18.785,341.667 18.750 C 341.487 18.715,341.301 18.751,341.253 18.828 C 341.205 18.905,341.016 18.930,340.833 18.882 C 340.628 18.828,340.500 18.877,340.500 19.008 C 340.500 19.126,340.453 19.175,340.395 19.117 C 340.337 19.059,340.131 19.100,339.936 19.208 C 339.742 19.316,339.544 19.408,339.496 19.411 C 339.373 19.419,338.888 19.837,338.383 20.370 C 338.147 20.620,337.877 20.777,337.784 20.720 C 337.689 20.661,337.666 20.698,337.732 20.805 C 337.802 20.917,337.641 21.122,337.342 21.304 C 337.063 21.473,336.884 21.662,336.945 21.723 C 337.006 21.784,336.931 21.833,336.779 21.833 C 336.627 21.833,336.287 22.131,336.023 22.494 C 335.760 22.858,335.497 23.108,335.439 23.050 C 335.381 22.992,335.333 23.044,335.333 23.167 C 335.333 23.289,335.290 23.345,335.236 23.292 C 335.114 23.170,334.595 23.678,334.447 24.065 C 334.386 24.224,334.276 24.317,334.202 24.272 C 334.129 24.227,333.818 24.484,333.511 24.845 C 333.204 25.205,332.889 25.500,332.810 25.500 C 332.663 25.500,332.004 26.103,331.995 26.245 C 331.993 26.288,331.683 26.607,331.308 26.953 C 330.932 27.300,330.288 27.902,329.877 28.292 C 329.466 28.681,329.107 29.000,329.080 29.000 C 329.052 29.000,328.517 29.495,327.890 30.100 C 327.263 30.705,326.581 31.313,326.375 31.452 C 326.169 31.591,326.000 31.821,326.000 31.964 C 326.000 32.106,325.953 32.175,325.895 32.117 C 325.837 32.059,325.645 32.195,325.468 32.419 C 325.292 32.643,325.061 32.810,324.956 32.788 C 324.851 32.767,324.762 32.837,324.758 32.944 C 324.748 33.193,324.527 33.415,324.278 33.424 C 324.171 33.428,324.102 33.522,324.125 33.632 C 324.147 33.742,323.847 34.064,323.458 34.348 C 323.069 34.633,322.771 34.939,322.796 35.028 C 322.821 35.118,322.767 35.145,322.676 35.089 C 322.585 35.033,322.415 35.140,322.299 35.327 C 322.182 35.514,321.980 35.667,321.849 35.667 C 321.718 35.667,321.657 35.712,321.712 35.768 C 321.862 35.917,321.058 36.667,320.748 36.667 C 320.601 36.667,320.527 36.592,320.583 36.500 C 320.640 36.408,320.607 36.333,320.510 36.333 C 320.413 36.333,320.333 36.256,320.333 36.162 C 320.333 36.067,320.066 35.748,319.740 35.453 C 319.413 35.158,318.873 34.548,318.539 34.098 C 318.205 33.648,317.723 33.050,317.466 32.769 C 317.210 32.489,317.000 32.196,317.000 32.120 C 317.000 32.043,316.936 32.020,316.858 32.068 C 316.779 32.117,316.631 31.971,316.528 31.745 C 316.425 31.518,316.271 31.333,316.186 31.333 C 316.100 31.333,315.820 31.001,315.564 30.595 C 315.307 30.189,315.037 29.894,314.965 29.938 C 314.893 29.983,314.833 29.913,314.833 29.783 C 314.833 29.653,314.646 29.406,314.417 29.234 C 314.188 29.062,314.000 28.862,314.000 28.791 C 314.000 28.719,313.731 28.400,313.402 28.080 C 313.074 27.761,312.843 27.500,312.889 27.500 C 312.936 27.500,312.698 27.203,312.362 26.839 C 312.025 26.476,311.450 25.830,311.083 25.405 C 310.717 24.980,310.285 24.490,310.125 24.316 C 309.965 24.142,309.868 24.000,309.911 24.000 C 309.954 24.000,309.746 23.756,309.450 23.458 C 309.154 23.160,308.731 22.654,308.510 22.333 C 308.289 22.012,307.822 21.483,307.471 21.157 C 307.120 20.830,306.833 20.493,306.832 20.407 C 306.832 20.321,306.625 20.121,306.374 19.963 C 305.418 19.363,305.247 19.247,305.163 19.134 C 304.840 18.708,301.893 18.677,263.000 18.688 C 219.797 18.701,221.890 18.665,221.305 19.413 L 220.917 19.908 220.872 51.328 C 220.848 68.608,220.879 82.860,220.941 82.998 C 221.004 83.137,221.061 83.304,221.069 83.370 C 221.085 83.506,221.501 83.965,221.942 84.333 C 222.204 84.552,224.794 84.589,242.621 84.628 C 261.166 84.668,263.633 84.721,262.739 85.064 C 262.596 85.119,262.519 85.229,262.568 85.308 C 262.616 85.387,262.471 85.536,262.245 85.639 C 262.018 85.742,261.833 85.944,261.833 86.088 C 261.833 86.233,261.611 86.428,261.338 86.523 C 261.066 86.618,260.860 86.746,260.880 86.806 C 260.929 86.953,260.209 87.667,260.011 87.667 C 259.926 87.667,259.809 87.813,259.753 87.991 C 259.696 88.170,259.503 88.363,259.325 88.419 C 259.146 88.476,259.000 88.634,259.000 88.771 C 259.000 88.908,258.934 88.979,258.852 88.928 C 258.771 88.878,258.666 88.986,258.618 89.169 C 258.570 89.351,258.412 89.500,258.266 89.500 C 258.120 89.500,258.000 89.612,258.000 89.750 C 258.000 89.888,257.937 90.000,257.860 90.000 C 257.782 90.000,257.056 90.656,256.245 91.458 C 255.434 92.260,254.834 92.811,254.911 92.683 C 255.006 92.524,254.990 92.487,254.859 92.567 C 254.753 92.633,254.667 92.786,254.667 92.907 C 254.667 93.028,254.423 93.314,254.125 93.542 C 253.343 94.142,251.093 96.430,251.028 96.691 C 250.998 96.814,250.893 96.963,250.794 97.024 C 250.307 97.325,250.621 99.333,251.155 99.333 C 251.253 99.333,251.333 99.412,251.333 99.507 C 251.333 99.624,252.677 99.673,255.417 99.658 C 257.662 99.645,259.500 99.570,259.500 99.492 C 259.500 99.413,259.760 99.300,260.077 99.240 C 260.395 99.181,260.741 99.028,260.846 98.901 C 260.952 98.774,261.096 98.707,261.168 98.751 C 261.240 98.795,261.341 98.719,261.394 98.582 C 261.447 98.445,261.596 98.333,261.727 98.333 C 261.858 98.333,262.008 98.221,262.060 98.083 C 262.113 97.946,262.242 97.833,262.348 97.833 C 262.586 97.833,266.152 94.208,266.032 94.087 C 265.984 94.039,266.069 94.000,266.222 94.000 C 266.375 94.000,266.500 93.930,266.500 93.845 C 266.500 93.759,266.650 93.642,266.833 93.583 C 267.017 93.525,267.167 93.408,267.167 93.322 C 267.167 93.159,267.743 92.530,267.958 92.458 C 268.027 92.435,268.065 92.362,268.043 92.295 C 268.020 92.228,268.208 92.047,268.459 91.893 C 268.967 91.583,270.500 90.010,270.500 89.800 C 270.500 89.727,270.574 89.667,270.664 89.667 C 270.754 89.667,271.098 89.404,271.428 89.083 C 271.758 88.763,272.085 88.500,272.153 88.500 C 272.221 88.500,272.373 88.321,272.490 88.102 C 272.607 87.883,272.883 87.622,273.102 87.522 C 273.321 87.422,273.500 87.226,273.500 87.087 C 273.500 86.947,273.561 86.852,273.636 86.875 C 273.811 86.929,275.167 85.569,275.167 85.340 C 275.167 85.245,275.236 85.167,275.320 85.167 C 275.405 85.167,275.808 84.832,276.216 84.424 C 276.625 84.015,277.018 83.734,277.090 83.799 C 277.161 83.864,277.166 83.822,277.099 83.707 C 277.023 83.575,277.121 83.440,277.364 83.342 C 277.576 83.257,277.688 83.183,277.613 83.177 C 277.399 83.161,277.951 82.667,278.183 82.667 C 278.296 82.667,278.343 82.621,278.288 82.566 C 278.164 82.442,278.916 81.667,279.159 81.667 C 279.255 81.667,279.333 81.554,279.333 81.417 C 279.333 81.279,279.390 81.166,279.458 81.165 C 279.527 81.165,279.921 80.830,280.333 80.423 C 280.746 80.015,281.182 79.678,281.302 79.674 C 281.421 79.670,281.479 79.600,281.428 79.519 C 281.378 79.438,281.449 79.278,281.585 79.165 C 281.722 79.052,281.833 79.003,281.833 79.056 C 281.833 79.108,283.415 77.580,285.349 75.659 C 287.282 73.738,288.937 72.167,289.025 72.167 C 289.114 72.167,289.142 72.095,289.089 72.008 C 289.035 71.921,289.156 71.761,289.359 71.653 C 289.561 71.545,290.236 70.950,290.857 70.333 C 291.479 69.715,292.028 69.250,292.077 69.299 C 292.126 69.348,292.167 69.277,292.167 69.141 C 292.167 69.005,292.445 68.674,292.785 68.405 C 293.938 67.494,294.667 66.765,294.667 66.521 C 294.667 66.387,294.715 66.326,294.775 66.386 C 294.834 66.445,295.195 66.158,295.578 65.747 C 295.960 65.336,296.362 65.000,296.470 65.000 C 296.578 65.000,296.648 64.944,296.625 64.875 C 296.567 64.701,297.290 64.000,297.528 64.000 C 297.635 64.000,297.678 63.956,297.625 63.903 C 297.513 63.791,298.006 63.167,298.206 63.167 C 298.278 63.167,298.821 62.679,299.411 62.083 C 300.001 61.487,300.553 61.000,300.639 61.000 C 300.724 61.000,300.834 60.850,300.882 60.667 C 300.930 60.483,301.088 60.333,301.234 60.333 C 301.380 60.333,301.500 60.232,301.500 60.109 C 301.500 59.519,302.178 59.226,302.521 59.668 C 302.699 59.896,303.104 60.360,303.422 60.699 C 303.740 61.037,304.000 61.398,304.000 61.500 C 304.000 61.603,304.067 61.645,304.148 61.595 C 304.229 61.545,304.398 61.630,304.523 61.784 C 304.718 62.025,304.715 62.043,304.500 61.916 C 304.362 61.835,304.512 62.029,304.833 62.348 C 305.567 63.076,305.993 63.618,305.903 63.708 C 305.865 63.746,306.021 63.878,306.250 64.000 C 306.479 64.123,306.667 64.315,306.667 64.427 C 306.667 64.539,306.780 64.674,306.918 64.728 C 307.057 64.781,307.150 64.882,307.127 64.954 C 307.103 65.025,307.129 65.083,307.184 65.083 C 307.339 65.083,308.255 66.218,308.212 66.357 C 308.191 66.424,308.322 66.527,308.503 66.584 C 308.685 66.642,308.833 66.797,308.833 66.928 C 308.833 67.059,308.910 67.167,309.004 67.167 C 309.097 67.167,309.258 67.352,309.361 67.578 C 309.464 67.804,309.613 67.950,309.691 67.902 C 309.769 67.853,309.833 67.874,309.834 67.948 C 309.834 68.083,310.335 68.720,311.044 69.486 C 311.249 69.708,311.398 69.952,311.375 70.028 C 311.352 70.104,311.428 70.167,311.543 70.167 C 311.726 70.167,312.163 70.686,312.172 70.912 C 312.173 70.956,312.510 71.323,312.921 71.728 C 313.331 72.132,313.667 72.549,313.667 72.654 C 313.667 72.758,313.776 72.886,313.910 72.937 C 314.044 72.989,314.198 73.170,314.252 73.340 C 314.306 73.510,314.497 73.696,314.675 73.753 C 314.854 73.809,315.000 73.933,315.000 74.028 C 315.000 74.122,315.206 74.401,315.458 74.647 C 316.046 75.220,316.760 76.080,316.660 76.095 C 316.501 76.120,317.151 76.667,317.339 76.667 C 317.447 76.667,317.492 76.779,317.440 76.917 C 317.385 77.059,317.436 77.167,317.557 77.167 C 317.744 77.167,318.500 78.021,318.500 78.232 C 318.500 78.276,318.852 78.654,319.283 79.072 C 319.714 79.491,320.014 79.833,319.950 79.833 C 319.886 79.833,320.245 80.265,320.747 80.792 C 321.249 81.319,321.661 81.844,321.663 81.958 C 321.665 82.073,321.779 82.167,321.917 82.167 C 322.054 82.167,322.167 82.239,322.167 82.327 C 322.167 82.557,323.040 83.333,323.300 83.333 C 323.421 83.333,323.477 83.402,323.425 83.487 C 323.373 83.571,323.612 83.731,323.957 83.842 C 324.301 83.953,324.688 84.127,324.815 84.228 C 324.942 84.330,325.216 84.390,325.424 84.363 C 325.632 84.336,325.851 84.393,325.911 84.490 C 325.986 84.612,330.881 84.667,341.827 84.667 L 357.635 84.667 358.301 84.311 C 359.572 83.633,359.774 81.848,358.708 80.700 C 357.794 79.715,356.433 78.150,355.442 76.944 C 355.153 76.593,354.604 75.957,354.222 75.531 C 353.840 75.106,353.564 74.698,353.609 74.625 C 353.655 74.551,353.619 74.512,353.531 74.538 C 353.374 74.582,353.135 74.340,352.203 73.192 C 351.954 72.884,351.619 72.491,351.458 72.317 C 351.298 72.142,351.167 71.925,351.167 71.833 C 351.167 71.742,351.052 71.667,350.911 71.667 C 350.771 71.667,350.609 71.535,350.551 71.375 C 350.360 70.845,349.811 70.161,349.654 70.258 C 349.569 70.310,349.500 70.236,349.500 70.093 C 349.500 69.950,349.421 69.833,349.323 69.833 C 349.226 69.833,349.184 69.773,349.230 69.699 C 349.276 69.625,349.058 69.352,348.745 69.091 C 348.433 68.831,348.217 68.554,348.265 68.475 C 348.313 68.397,348.234 68.333,348.089 68.333 C 347.944 68.333,347.760 68.162,347.680 67.952 C 347.600 67.742,347.227 67.292,346.850 66.952 C 346.474 66.612,346.215 66.333,346.275 66.333 C 346.335 66.333,346.223 66.193,346.026 66.022 C 345.828 65.851,345.667 65.643,345.667 65.559 C 345.667 65.476,345.535 65.289,345.375 65.145 C 345.215 65.000,344.821 64.571,344.500 64.190 C 344.179 63.810,343.673 63.239,343.375 62.922 C 343.077 62.604,342.833 62.294,342.833 62.233 C 342.833 62.172,342.402 61.676,341.875 61.132 C 341.348 60.588,340.937 60.067,340.962 59.975 C 340.988 59.884,340.946 59.847,340.870 59.894 C 340.794 59.941,340.473 59.641,340.158 59.227 C 339.842 58.814,339.358 58.247,339.083 57.967 C 338.808 57.688,338.602 57.395,338.624 57.316 C 338.646 57.237,338.479 57.051,338.252 56.903 C 338.025 56.754,337.681 56.377,337.489 56.065 C 337.296 55.753,337.065 55.543,336.975 55.599 C 336.885 55.655,336.770 55.543,336.719 55.350 C 336.669 55.158,336.562 55.000,336.481 55.000 C 336.400 55.000,336.333 54.906,336.332 54.792 C 336.331 54.677,336.106 54.406,335.832 54.190 C 335.558 53.973,335.333 53.687,335.333 53.555 C 335.333 53.422,335.258 53.360,335.167 53.417 C 335.075 53.473,334.996 53.421,334.992 53.302 C 334.987 53.182,334.688 52.783,334.326 52.417 C 333.965 52.050,333.669 51.656,333.668 51.542 C 333.667 51.427,333.610 51.352,333.542 51.375 C 333.473 51.398,333.399 51.359,333.378 51.289 C 333.356 51.219,333.075 50.919,332.753 50.623 C 332.430 50.328,332.167 50.009,332.167 49.916 C 332.167 49.689,331.364 48.833,331.150 48.833 C 331.057 48.833,331.027 48.758,331.083 48.667 C 331.140 48.575,331.112 48.500,331.021 48.500 C 330.930 48.500,330.808 48.349,330.749 48.164 C 330.691 47.980,330.592 47.857,330.530 47.892 C 330.468 47.927,330.245 47.778,330.036 47.561 C 329.826 47.344,329.694 47.167,329.742 47.167 C 329.856 47.167,329.411 46.624,328.625 45.805 C 328.281 45.446,328.000 45.108,328.000 45.054 C 328.000 44.999,327.689 44.617,327.309 44.205 L 326.619 43.455 327.351 42.802 C 328.156 42.084,329.979 40.310,330.264 39.967 C 330.542 39.633,333.068 37.351,333.476 37.064 C 333.678 36.923,333.789 36.723,333.726 36.614 C 333.664 36.505,333.671 36.468,333.741 36.532 C 333.811 36.595,334.038 36.482,334.245 36.282 C 334.451 36.081,335.231 35.359,335.977 34.677 C 336.723 33.995,337.333 33.347,337.333 33.238 C 337.333 33.128,337.596 32.913,337.917 32.761 C 338.237 32.609,338.500 32.408,338.500 32.314 C 338.500 32.073,338.939 31.661,339.063 31.786 C 339.120 31.842,339.167 31.768,339.167 31.621 C 339.167 31.474,339.253 31.299,339.359 31.234 C 339.486 31.155,339.506 31.189,339.417 31.333 C 339.327 31.478,339.347 31.511,339.474 31.433 C 339.580 31.367,339.667 31.206,339.667 31.073 C 339.667 30.941,339.744 30.833,339.838 30.833 C 339.933 30.833,340.238 30.574,340.515 30.258 C 340.793 29.942,341.172 29.635,341.356 29.576 C 341.541 29.518,341.653 29.431,341.606 29.383 C 341.513 29.290,342.578 28.134,342.737 28.154 C 342.906 28.176,343.450 27.588,343.380 27.458 C 343.344 27.390,343.389 27.333,343.481 27.333 C 343.573 27.333,344.196 26.771,344.866 26.084 C 345.535 25.396,346.159 24.834,346.251 24.834 C 346.343 24.833,346.647 24.590,346.926 24.292 C 347.205 23.994,347.893 23.326,348.455 22.808 C 349.017 22.290,349.432 21.821,349.377 21.766 C 349.323 21.711,349.370 21.667,349.482 21.667 C 349.594 21.667,349.645 21.600,349.595 21.519 C 349.545 21.438,349.603 21.289,349.725 21.188 C 350.206 20.788,350.051 19.555,349.459 19.084 C 348.923 18.656,342.303 18.311,342.064 18.698 M183.553 19.104 C 183.422 19.444,183.627 59.802,183.761 60.018 C 183.897 60.237,202.899 60.202,203.750 59.980 C 204.117 59.885,204.585 59.798,204.792 59.787 C 204.998 59.776,205.167 59.707,205.167 59.633 C 205.167 59.560,205.312 59.500,205.490 59.500 C 205.668 59.500,205.860 59.425,205.917 59.333 C 205.973 59.242,206.203 59.167,206.427 59.167 C 206.650 59.167,206.833 59.084,206.833 58.982 C 206.833 58.881,206.950 58.842,207.092 58.897 C 207.240 58.954,207.307 58.926,207.249 58.831 C 207.159 58.685,207.275 58.636,207.606 58.681 C 207.665 58.689,207.759 58.629,207.815 58.547 C 207.871 58.466,208.198 58.268,208.542 58.108 C 208.885 57.949,209.167 57.746,209.167 57.659 C 209.167 57.571,209.282 57.500,209.422 57.500 C 209.562 57.500,209.720 57.387,209.773 57.250 C 209.826 57.112,209.973 57.000,210.101 57.000 C 210.229 57.000,210.333 56.887,210.333 56.750 C 210.333 56.612,210.433 56.500,210.554 56.500 C 210.807 56.500,211.500 55.812,211.500 55.561 C 211.500 55.469,211.669 55.235,211.875 55.040 C 212.414 54.533,212.859 53.941,212.830 53.769 C 212.816 53.687,212.900 53.562,213.016 53.490 C 213.132 53.419,213.245 53.235,213.267 53.082 C 213.290 52.929,213.417 52.679,213.551 52.527 C 213.805 52.238,214.090 51.507,214.033 51.292 C 214.015 51.223,214.070 51.167,214.155 51.167 C 214.289 51.167,214.461 50.541,214.754 48.988 C 214.796 48.765,214.873 48.396,214.924 48.167 C 214.975 47.938,215.012 44.262,215.006 40.000 L 214.994 32.250 210.956 32.206 L 206.917 32.161 206.917 39.331 C 206.917 43.274,206.968 46.500,207.031 46.500 C 207.168 46.500,207.040 47.280,206.842 47.651 C 206.764 47.797,206.689 47.992,206.676 48.083 C 206.598 48.630,206.441 49.000,206.287 49.000 C 206.190 49.000,206.158 49.047,206.216 49.105 C 206.373 49.262,206.009 49.858,205.825 49.745 C 205.738 49.691,205.667 49.747,205.667 49.870 C 205.667 50.208,203.837 51.712,203.831 51.379 C 203.829 51.308,203.773 51.325,203.706 51.417 C 203.236 52.056,202.380 52.120,195.295 52.042 L 191.506 52.000 191.545 35.427 L 191.583 18.854 187.622 18.839 C 184.058 18.825,183.649 18.852,183.553 19.104 M150.631 22.917 C 150.605 25.071,150.640 26.835,150.708 26.837 C 150.777 26.838,152.577 26.841,154.708 26.843 L 158.583 26.847 158.633 23.301 C 158.661 21.351,158.641 19.586,158.588 19.378 L 158.494 19.000 154.586 19.000 L 150.678 19.000 150.631 22.917 M269.542 30.188 C 270.069 30.206,270.500 30.284,270.500 30.361 C 270.500 30.437,270.688 30.500,270.917 30.500 C 271.146 30.500,271.333 30.575,271.333 30.667 C 271.333 30.758,271.390 30.824,271.458 30.814 C 271.804 30.759,272.039 30.889,272.720 31.508 C 273.163 31.911,273.502 32.385,273.562 32.686 C 273.631 33.028,273.730 33.150,273.873 33.068 C 273.989 33.001,274.032 33.004,273.969 33.074 C 273.906 33.144,273.932 33.399,274.027 33.642 C 274.122 33.885,274.229 34.421,274.266 34.833 C 274.303 35.246,274.377 35.931,274.431 36.356 C 274.492 36.837,274.461 37.171,274.348 37.241 C 274.248 37.303,274.168 37.442,274.169 37.552 C 274.171 37.671,274.236 37.650,274.333 37.500 C 274.422 37.362,274.496 37.331,274.497 37.431 C 274.499 37.530,274.444 37.667,274.375 37.736 C 274.306 37.805,274.237 38.024,274.221 38.222 C 274.185 38.682,274.100 39.038,273.977 39.250 C 273.923 39.342,273.827 39.642,273.763 39.917 C 273.699 40.192,273.482 40.554,273.282 40.723 C 273.081 40.891,273.029 40.976,273.167 40.911 C 273.304 40.845,273.054 41.139,272.611 41.563 C 272.168 41.987,271.674 42.333,271.514 42.333 C 271.353 42.333,271.171 42.385,271.108 42.448 C 271.045 42.511,270.863 42.576,270.705 42.594 C 270.546 42.611,270.192 42.686,269.917 42.761 C 269.642 42.836,266.248 42.901,262.375 42.907 C 258.502 42.912,255.333 42.977,255.333 43.052 C 255.333 43.126,255.276 43.151,255.206 43.108 C 255.136 43.064,254.863 43.276,254.600 43.578 L 254.122 44.126 254.134 48.556 C 254.153 54.926,253.341 54.314,261.790 54.329 C 265.387 54.335,268.510 54.409,268.731 54.493 C 268.952 54.577,269.178 54.600,269.233 54.545 C 269.288 54.490,269.333 54.522,269.333 54.616 C 269.333 54.710,269.502 54.758,269.708 54.722 C 270.154 54.644,272.269 55.709,272.208 55.980 C 272.185 56.083,272.254 56.148,272.361 56.125 C 272.468 56.102,272.646 56.255,272.755 56.465 C 272.864 56.674,273.103 57.012,273.285 57.215 C 273.739 57.719,273.945 58.088,273.680 57.925 C 273.525 57.829,273.517 57.873,273.650 58.108 C 274.024 58.769,274.312 59.679,274.249 60.003 C 274.214 60.189,274.247 60.304,274.323 60.256 C 274.525 60.131,274.640 60.922,274.466 61.234 C 274.371 61.403,274.380 61.500,274.492 61.500 C 274.689 61.500,274.745 65.699,274.551 65.894 C 274.487 65.957,274.421 66.101,274.405 66.213 C 274.264 67.168,273.932 68.477,273.761 68.750 C 273.646 68.933,273.501 69.293,273.438 69.548 C 273.375 69.804,273.251 69.969,273.162 69.914 C 273.073 69.859,273.000 69.926,273.000 70.063 C 273.000 70.329,271.708 71.833,271.479 71.833 C 271.404 71.833,270.947 72.010,270.463 72.226 C 269.242 72.770,268.965 72.859,269.085 72.665 C 269.141 72.574,269.069 72.500,268.927 72.500 C 268.784 72.500,268.667 72.556,268.667 72.625 C 268.667 72.952,249.868 73.121,249.746 72.795 C 249.703 72.678,249.648 63.021,249.625 51.333 L 249.583 30.083 259.083 30.119 C 264.308 30.138,269.015 30.169,269.542 30.188 M128.250 40.692 C 128.617 40.810,129.104 41.002,129.333 41.119 C 129.563 41.236,129.825 41.332,129.917 41.333 C 130.008 41.334,130.308 41.528,130.583 41.763 C 130.858 41.998,130.971 42.132,130.835 42.061 C 130.698 41.989,130.864 42.208,131.203 42.547 C 131.752 43.096,132.198 44.080,132.241 44.833 C 132.249 44.971,132.297 45.158,132.348 45.250 C 132.515 45.551,132.408 47.408,132.202 47.781 C 132.091 47.981,132.000 48.294,132.000 48.475 C 132.000 48.957,131.821 49.346,131.649 49.239 C 131.567 49.188,131.500 49.245,131.500 49.365 C 131.499 49.826,129.894 51.262,129.239 51.388 C 129.062 51.422,128.804 51.492,128.667 51.544 C 128.529 51.595,128.172 51.715,127.872 51.811 C 127.125 52.049,102.232 52.075,102.086 51.837 C 102.028 51.743,102.043 51.667,102.120 51.667 C 102.196 51.667,102.520 51.438,102.838 51.158 C 103.996 50.138,104.489 49.667,104.395 49.667 C 104.341 49.667,104.539 49.442,104.833 49.167 C 105.128 48.892,105.398 48.667,105.434 48.667 C 105.594 48.667,106.129 48.018,106.042 47.931 C 105.988 47.877,106.069 47.833,106.222 47.833 C 106.375 47.833,106.500 47.754,106.500 47.657 C 106.500 47.560,106.575 47.527,106.667 47.583 C 106.758 47.640,106.833 47.617,106.833 47.533 C 106.833 47.315,107.862 46.252,108.300 46.018 C 108.501 45.910,108.667 45.724,108.667 45.606 C 108.667 45.487,108.852 45.291,109.078 45.170 C 109.304 45.049,109.449 44.886,109.401 44.808 C 109.353 44.730,109.389 44.667,109.482 44.667 C 109.574 44.667,110.188 44.142,110.845 43.500 C 111.502 42.858,112.087 42.331,112.145 42.328 C 112.203 42.325,112.646 41.894,113.130 41.370 L 114.009 40.417 120.796 40.447 C 125.789 40.470,127.760 40.535,128.250 40.692 M197.051 52.291 C 196.116 52.321,194.541 52.321,193.551 52.291 C 192.560 52.262,193.325 52.237,195.250 52.237 C 197.175 52.237,197.985 52.261,197.051 52.291 M156.917 67.711 L 156.917 71.672 160.833 71.628 L 164.750 71.583 164.750 67.704 L 164.750 63.826 160.833 63.788 L 156.917 63.750 156.917 67.711 M169.750 63.833 L 165.917 63.917 165.917 67.795 L 165.917 71.673 169.833 71.628 L 173.750 71.583 173.783 67.713 C 173.801 65.584,173.764 63.822,173.700 63.796 C 173.636 63.771,171.858 63.788,169.750 63.833 M193.444 63.778 C 193.429 63.793,193.438 65.574,193.464 67.736 L 193.512 71.667 197.417 71.667 L 201.321 71.667 201.369 67.812 C 201.399 65.349,201.357 63.936,201.250 63.899 C 201.086 63.842,193.498 63.724,193.444 63.778 M41.603 77.591 C 41.352 78.246,41.492 83.469,41.769 83.745 C 42.031 84.007,47.775 84.083,48.488 83.833 C 49.613 83.440,50.244 81.504,49.506 80.711 C 49.223 80.408,49.216 80.331,49.432 79.914 C 49.681 79.434,49.680 78.917,49.428 78.516 C 49.328 78.356,49.342 78.319,49.472 78.400 C 49.595 78.476,49.628 78.426,49.564 78.260 C 49.510 78.118,49.398 78.043,49.316 78.094 C 49.234 78.145,49.167 78.041,49.167 77.863 C 49.167 77.276,41.825 77.013,41.603 77.591 M55.083 77.442 C 54.761 77.509,54.753 77.612,54.833 80.589 C 54.887 82.584,54.858 83.669,54.750 83.672 C 54.658 83.675,54.714 83.753,54.873 83.845 C 55.032 83.938,55.745 83.992,56.456 83.965 L 57.750 83.917 57.750 80.667 L 57.750 77.417 56.583 77.394 C 55.942 77.382,55.267 77.404,55.083 77.442 M63.349 80.514 C 63.349 83.921,63.390 84.073,64.282 83.970 C 64.748 83.917,64.750 83.911,64.798 82.544 C 64.846 81.182,64.850 81.172,65.277 81.207 C 65.513 81.227,65.743 81.338,65.788 81.455 C 65.832 81.571,65.992 81.667,66.143 81.667 C 66.293 81.668,66.679 81.832,67.000 82.032 C 67.321 82.233,67.688 82.415,67.817 82.437 C 67.945 82.460,68.102 82.562,68.165 82.664 C 68.229 82.767,68.349 82.831,68.432 82.806 C 68.515 82.781,69.155 83.047,69.853 83.395 C 70.565 83.751,71.297 84.004,71.520 83.973 L 71.917 83.917 71.917 80.667 L 71.917 77.417 71.216 77.399 C 70.831 77.389,70.521 77.426,70.528 77.482 C 70.579 77.918,70.455 80.205,70.390 80.042 C 70.343 79.927,70.171 79.833,70.007 79.833 C 69.842 79.833,69.618 79.726,69.509 79.594 C 69.400 79.462,69.096 79.308,68.833 79.250 C 68.571 79.192,68.267 79.038,68.158 78.906 C 68.049 78.774,67.859 78.667,67.737 78.667 C 67.615 78.667,67.155 78.455,66.716 78.197 C 65.983 77.766,64.319 77.319,63.633 77.368 C 63.376 77.387,63.349 77.689,63.349 80.514 M78.167 77.523 C 78.167 77.613,78.092 77.640,78.000 77.583 C 77.908 77.527,77.833 77.553,77.833 77.643 C 77.833 77.732,77.613 78.013,77.343 78.268 C 77.074 78.522,76.887 78.786,76.929 78.854 C 76.971 78.921,76.926 79.026,76.828 79.087 C 76.623 79.213,76.651 82.167,76.857 82.167 C 76.929 82.167,77.073 82.326,77.177 82.520 C 77.321 82.789,77.320 82.844,77.171 82.753 C 77.041 82.672,77.049 82.749,77.194 82.983 C 77.315 83.175,77.550 83.333,77.717 83.333 C 77.883 83.333,77.979 83.400,77.929 83.481 C 77.749 83.771,79.352 84.000,81.560 84.000 C 83.823 84.000,84.409 83.923,84.239 83.649 C 84.188 83.567,84.226 83.500,84.323 83.500 C 84.591 83.500,84.535 83.191,84.204 82.835 C 83.950 82.563,83.641 82.513,82.052 82.489 L 80.197 82.462 80.087 81.876 C 79.932 81.053,80.017 81.017,82.253 80.964 C 84.229 80.917,84.251 80.912,84.307 80.509 C 84.404 79.826,83.962 79.667,81.978 79.667 C 80.072 79.667,79.959 79.627,80.181 79.042 C 80.315 78.686,80.411 78.667,82.064 78.667 C 84.200 78.667,84.333 78.622,84.333 77.905 L 84.333 77.346 81.250 77.353 C 79.356 77.358,78.167 77.423,78.167 77.523 M89.218 77.607 C 89.154 77.773,89.191 77.925,89.304 77.963 C 89.413 77.999,89.463 78.092,89.415 78.169 C 89.368 78.246,89.480 78.357,89.664 78.416 C 89.849 78.475,90.000 78.636,90.000 78.774 C 90.000 78.913,90.315 79.320,90.701 79.680 C 91.086 80.039,91.330 80.336,91.243 80.338 C 91.155 80.341,91.215 80.420,91.377 80.514 C 91.652 80.674,90.049 82.577,89.635 82.582 C 89.420 82.585,88.833 83.317,88.833 83.582 C 88.833 83.950,89.284 84.081,89.617 83.810 C 89.854 83.619,89.876 83.619,89.760 83.811 C 89.684 83.937,90.004 83.674,90.470 83.228 C 92.243 81.531,92.580 81.259,92.458 81.625 C 92.435 81.694,92.480 81.764,92.557 81.781 C 92.762 81.825,93.149 82.394,93.066 82.528 C 93.027 82.592,93.082 82.698,93.190 82.764 C 93.322 82.846,93.341 82.809,93.251 82.651 C 93.034 82.270,93.727 83.043,94.038 83.529 C 94.318 83.965,94.359 83.974,96.079 83.974 C 98.043 83.974,98.241 83.822,97.425 82.941 C 97.200 82.698,97.050 82.500,97.092 82.500 C 97.133 82.500,96.918 82.256,96.613 81.958 C 96.308 81.660,95.778 81.065,95.435 80.636 L 94.811 79.855 95.489 79.178 C 95.862 78.805,96.201 78.500,96.242 78.500 C 96.403 78.500,97.182 77.627,97.097 77.542 C 96.683 77.127,95.715 77.454,94.907 78.281 L 94.063 79.146 93.790 78.781 C 93.639 78.581,93.511 78.362,93.505 78.295 C 93.429 77.445,89.520 76.818,89.218 77.607 M109.167 77.667 L 111.250 77.766 109.036 77.800 L 106.821 77.833 106.841 80.921 L 106.860 84.009 109.221 83.963 L 111.582 83.917 111.582 83.417 L 111.583 82.917 109.701 82.917 L 107.818 82.917 107.868 82.083 L 107.917 81.250 109.500 81.167 L 111.083 81.083 111.137 80.614 L 111.191 80.144 109.504 80.197 L 107.818 80.250 107.867 79.500 L 107.917 78.750 109.674 78.703 L 111.432 78.656 111.364 78.078 L 111.297 77.500 109.190 77.534 L 107.083 77.568 109.167 77.667 M121.012 77.735 C 120.877 77.899,120.871 78.004,120.995 78.080 C 121.092 78.140,121.129 78.260,121.076 78.345 C 121.023 78.430,121.103 78.500,121.254 78.500 C 121.417 78.500,121.631 78.765,121.787 79.162 C 121.930 79.526,122.113 79.783,122.194 79.733 C 122.275 79.683,122.331 79.704,122.318 79.779 C 122.257 80.130,122.354 80.333,122.583 80.333 C 122.904 80.333,122.901 80.361,122.483 81.161 C 122.291 81.530,122.066 81.791,121.983 81.740 C 121.901 81.689,121.833 81.791,121.833 81.967 C 121.833 82.143,121.533 82.627,121.167 83.044 C 120.394 83.922,120.370 84.001,120.875 83.998 C 121.463 83.994,122.005 83.810,121.905 83.648 C 121.855 83.566,121.893 83.500,121.990 83.500 C 122.087 83.500,122.167 83.396,122.167 83.268 C 122.167 83.140,122.279 82.992,122.417 82.940 C 122.554 82.887,122.667 82.742,122.667 82.619 C 122.667 82.316,123.381 81.710,123.636 81.795 C 123.864 81.871,124.423 82.840,124.363 83.054 C 124.342 83.130,124.402 83.144,124.496 83.086 C 124.590 83.028,124.667 83.060,124.667 83.157 C 124.667 83.254,124.817 83.483,125.000 83.667 C 125.399 84.066,126.333 84.124,126.333 83.750 C 126.333 83.612,126.221 83.500,126.083 83.500 C 125.946 83.500,125.833 83.358,125.833 83.184 C 125.833 83.011,125.721 82.826,125.583 82.773 C 125.446 82.720,125.333 82.562,125.333 82.422 C 125.333 82.282,125.246 82.167,125.139 82.167 C 125.032 82.167,124.994 82.117,125.054 82.057 C 125.115 81.996,125.014 81.841,124.829 81.712 C 124.645 81.583,124.538 81.407,124.591 81.321 C 124.644 81.235,124.571 81.119,124.427 81.064 C 124.137 80.953,124.066 80.333,124.343 80.333 C 124.440 80.333,124.481 80.271,124.434 80.195 C 124.387 80.119,124.552 79.826,124.799 79.544 C 125.476 78.773,125.833 78.282,125.833 78.123 C 125.833 78.044,125.916 78.031,126.017 78.094 C 126.145 78.173,126.144 78.102,126.011 77.853 C 125.789 77.439,125.000 77.358,125.000 77.750 C 125.000 77.887,124.930 78.000,124.845 78.000 C 124.759 78.000,124.647 78.131,124.596 78.292 C 124.545 78.452,124.297 78.807,124.044 79.080 C 123.790 79.353,123.602 79.634,123.625 79.705 C 123.648 79.776,123.592 79.833,123.500 79.833 C 123.408 79.833,123.333 79.763,123.333 79.677 C 123.333 79.591,123.112 79.279,122.842 78.983 C 122.572 78.687,122.261 78.228,122.151 77.963 C 122.011 77.625,121.899 77.534,121.776 77.657 C 121.679 77.754,121.484 77.828,121.342 77.822 C 121.159 77.813,121.180 77.768,121.417 77.667 C 121.673 77.556,121.687 77.521,121.479 77.512 C 121.330 77.505,121.120 77.606,121.012 77.735 M137.410 77.678 C 137.349 77.776,137.201 77.818,137.080 77.772 C 136.960 77.726,136.815 77.806,136.760 77.951 C 136.704 78.096,136.612 78.167,136.555 78.110 C 136.416 77.972,135.662 78.857,135.769 79.031 C 135.815 79.106,135.769 79.167,135.667 79.167 C 135.564 79.167,135.527 79.242,135.583 79.333 C 135.640 79.425,135.602 79.500,135.500 79.500 C 135.398 79.500,135.357 79.570,135.410 79.655 C 135.462 79.740,135.436 79.853,135.350 79.906 C 135.200 79.999,135.225 81.025,135.396 81.785 C 135.572 82.574,136.052 83.328,136.504 83.528 C 136.763 83.643,136.950 83.779,136.919 83.830 C 136.800 84.022,139.003 84.010,139.370 83.817 C 139.849 83.565,140.556 82.874,140.601 82.614 C 140.619 82.506,140.683 82.295,140.743 82.147 C 140.820 81.956,140.739 81.847,140.468 81.774 C 139.904 81.623,139.633 81.644,139.748 81.831 C 140.122 82.436,138.186 83.413,137.542 82.944 C 137.427 82.861,137.333 82.845,137.333 82.908 C 137.333 83.096,136.777 82.484,136.551 82.048 C 136.337 81.635,136.253 80.777,136.384 80.333 C 136.424 80.196,136.512 79.852,136.578 79.568 C 136.829 78.491,138.418 78.132,139.221 78.970 C 139.469 79.228,139.630 79.482,139.578 79.533 C 139.527 79.584,139.599 79.669,139.737 79.722 C 139.876 79.775,140.032 79.750,140.083 79.667 C 140.135 79.583,140.287 79.557,140.422 79.608 C 140.557 79.660,140.667 79.622,140.667 79.523 C 140.667 79.248,140.120 78.167,139.981 78.167 C 139.913 78.167,139.735 78.045,139.586 77.895 C 139.266 77.575,137.577 77.407,137.410 77.678 M150.458 77.615 C 150.193 77.684,150.167 77.982,150.167 80.856 L 150.167 84.021 150.708 83.969 L 151.250 83.917 151.298 82.458 L 151.346 81.000 152.798 81.000 L 154.250 81.000 154.191 82.511 L 154.133 84.022 154.775 83.969 L 155.417 83.917 155.424 80.833 L 155.432 77.750 155.332 80.833 L 155.231 83.917 155.241 80.708 C 155.250 77.607,155.239 77.500,154.917 77.502 C 154.640 77.505,154.626 77.533,154.833 77.667 C 154.971 77.756,155.005 77.829,154.908 77.831 C 154.812 77.832,154.646 77.746,154.539 77.639 C 154.241 77.341,154.129 77.811,154.194 79.075 L 154.250 80.167 152.792 80.167 L 151.333 80.167 151.333 79.033 C 151.333 78.029,151.147 77.455,150.842 77.519 C 150.791 77.530,150.619 77.573,150.458 77.615 M166.686 77.708 C 166.724 77.945,166.627 78.214,166.047 79.479 C 165.822 79.972,165.606 80.549,165.567 80.760 C 165.529 80.972,165.336 81.506,165.139 81.948 C 164.942 82.389,164.773 82.825,164.765 82.917 C 164.756 83.008,164.652 83.252,164.535 83.458 C 164.304 83.864,164.286 83.851,165.186 83.918 C 165.425 83.935,165.620 83.867,165.618 83.767 C 165.607 83.198,165.683 82.990,165.862 83.101 C 165.986 83.178,166.024 83.136,165.967 82.986 C 165.703 82.293,166.107 82.000,167.328 82.000 C 168.238 82.000,168.500 82.054,168.500 82.240 C 168.500 82.373,168.656 82.745,168.847 83.068 C 169.037 83.391,169.155 83.718,169.107 83.795 C 169.060 83.871,169.274 83.950,169.582 83.971 C 170.251 84.016,170.423 83.808,170.139 83.295 C 170.023 83.087,169.916 82.860,169.902 82.792 C 169.887 82.723,169.856 82.629,169.833 82.583 C 169.810 82.537,169.776 82.444,169.757 82.375 C 169.738 82.306,169.635 82.039,169.528 81.781 C 169.421 81.523,169.333 81.242,169.333 81.156 C 169.333 81.070,169.246 81.000,169.139 81.000 C 169.032 81.000,168.994 80.951,169.054 80.890 C 169.114 80.830,169.087 80.688,168.993 80.575 C 168.899 80.461,168.836 80.304,168.854 80.226 C 168.900 80.023,168.657 79.464,168.384 79.146 C 168.257 78.997,168.168 78.809,168.186 78.729 C 168.250 78.443,167.713 77.456,167.596 77.646 C 167.533 77.749,167.354 77.828,167.198 77.822 C 166.969 77.812,166.978 77.783,167.250 77.667 C 167.544 77.540,167.528 77.522,167.118 77.512 C 166.833 77.505,166.665 77.581,166.686 77.708 M179.455 80.739 L 179.493 83.917 179.955 83.917 L 180.417 83.917 180.464 81.766 L 180.510 79.616 180.916 80.166 C 181.140 80.469,181.276 80.792,181.219 80.884 C 181.162 80.976,181.193 81.003,181.288 80.945 C 181.383 80.886,181.554 81.062,181.668 81.335 C 181.781 81.609,181.940 81.833,182.020 81.833 C 182.101 81.833,182.167 81.946,182.167 82.083 C 182.167 82.221,182.242 82.333,182.333 82.333 C 182.425 82.333,182.500 82.448,182.500 82.589 C 182.500 82.729,182.612 82.887,182.749 82.939 C 182.886 82.992,182.957 83.102,182.906 83.184 C 182.855 83.266,182.898 83.333,183.000 83.333 C 183.102 83.333,183.140 83.408,183.083 83.500 C 183.027 83.592,183.064 83.667,183.167 83.667 C 183.269 83.667,183.305 83.744,183.246 83.839 C 183.179 83.949,183.358 83.998,183.736 83.972 L 184.333 83.932 184.333 80.916 C 184.333 78.792,184.274 77.841,184.133 77.700 C 183.871 77.437,183.368 77.443,183.378 77.708 C 183.455 79.782,183.306 81.667,183.066 81.667 C 182.892 81.667,182.833 81.576,182.897 81.408 C 182.952 81.266,182.931 81.190,182.851 81.239 C 182.771 81.289,182.607 81.086,182.487 80.790 C 182.368 80.493,182.171 80.190,182.051 80.117 C 181.931 80.043,181.833 79.870,181.833 79.732 C 181.833 79.582,181.754 79.529,181.638 79.601 C 181.512 79.679,181.477 79.634,181.538 79.474 C 181.593 79.331,181.496 79.140,181.310 79.024 C 181.132 78.913,181.032 78.750,181.087 78.661 C 181.142 78.573,181.107 78.500,181.010 78.500 C 180.913 78.500,180.852 78.406,180.875 78.292 C 180.898 78.177,180.823 78.102,180.708 78.125 C 180.594 78.148,180.500 78.014,180.500 77.828 C 180.500 77.550,180.404 77.496,179.958 77.526 L 179.417 77.562 179.455 80.739 M196.512 77.621 C 196.290 77.663,195.934 77.812,195.721 77.951 C 195.508 78.091,195.333 78.154,195.333 78.091 C 195.333 77.856,194.835 78.486,194.475 79.177 C 193.708 80.648,193.945 82.141,195.124 83.277 L 195.845 83.971 197.131 83.963 C 198.370 83.955,199.333 83.680,199.333 83.334 C 199.333 83.248,199.446 83.220,199.583 83.273 C 199.721 83.326,199.837 83.286,199.842 83.184 C 199.847 83.083,199.855 82.464,199.860 81.808 L 199.868 80.617 198.475 80.600 L 197.081 80.583 197.050 81.125 L 197.019 81.667 197.917 81.667 C 198.863 81.667,199.084 81.808,198.924 82.310 C 198.816 82.649,198.063 83.058,197.821 82.909 C 197.736 82.857,197.667 82.893,197.667 82.990 C 197.667 83.087,197.442 83.167,197.167 83.167 C 196.892 83.167,196.667 83.100,196.667 83.018 C 196.667 82.936,196.460 82.818,196.208 82.755 C 195.434 82.560,195.100 82.049,195.069 81.011 C 194.992 78.493,197.629 77.509,198.808 79.616 C 198.941 79.853,199.012 79.865,199.227 79.686 C 199.369 79.568,199.557 79.516,199.645 79.570 C 199.777 79.652,199.786 79.323,199.660 79.000 C 199.642 78.954,199.636 78.860,199.647 78.792 C 199.658 78.723,199.554 78.667,199.417 78.667 C 199.279 78.667,199.185 78.578,199.208 78.469 C 199.231 78.361,199.025 78.162,198.750 78.027 C 198.475 77.892,198.213 77.737,198.167 77.683 C 198.062 77.557,197.046 77.519,196.512 77.621 M209.601 77.764 C 209.546 77.909,209.500 79.368,209.500 81.006 L 209.500 83.986 211.875 83.951 C 214.146 83.918,214.248 83.902,214.200 83.583 C 214.085 82.810,214.084 82.809,212.243 82.864 L 210.485 82.917 210.534 82.083 L 210.583 81.250 212.285 81.203 L 213.986 81.155 213.951 80.677 L 213.917 80.200 212.236 80.225 L 210.556 80.250 210.520 79.458 L 210.484 78.667 212.117 78.664 C 213.967 78.661,214.147 78.597,214.110 77.958 C 214.083 77.490,213.934 77.369,213.750 77.667 C 213.689 77.766,212.855 77.820,211.698 77.800 L 209.750 77.766 211.750 77.667 L 213.750 77.567 211.726 77.534 C 210.014 77.505,209.687 77.541,209.601 77.764 M150.457 82.208 C 150.426 82.965,150.401 82.346,150.401 80.833 C 150.401 79.321,150.426 78.702,150.457 79.458 C 150.488 80.215,150.488 81.452,150.457 82.208 M46.636 79.041 C 46.726 79.515,46.307 79.750,45.373 79.750 C 44.711 79.750,44.517 79.696,44.581 79.528 C 44.628 79.406,44.667 79.158,44.667 78.978 C 44.667 78.516,46.547 78.576,46.636 79.041 M167.583 79.538 C 167.652 79.838,167.729 80.158,167.754 80.250 C 167.778 80.342,167.825 80.529,167.857 80.667 C 167.890 80.804,167.992 80.972,168.083 81.039 C 168.175 81.106,167.856 81.163,167.375 81.164 C 166.561 81.166,166.270 80.995,166.669 80.748 C 166.763 80.691,166.796 80.574,166.743 80.489 C 166.690 80.404,166.759 80.175,166.894 79.981 C 167.030 79.787,167.102 79.525,167.053 79.398 C 167.004 79.271,167.052 79.167,167.159 79.167 C 167.266 79.167,167.299 79.080,167.234 78.974 C 167.166 78.864,167.188 78.827,167.286 78.887 C 167.380 78.946,167.514 79.238,167.583 79.538 M46.569 81.175 C 46.783 81.381,46.844 82.167,46.645 82.167 C 46.555 82.167,46.527 82.242,46.583 82.333 C 46.648 82.437,46.313 82.500,45.693 82.500 L 44.699 82.500 44.641 81.708 L 44.583 80.917 45.500 80.973 C 46.004 81.004,46.485 81.095,46.569 81.175 M263.331 84.625 C 263.329 84.832,263.290 84.857,263.196 84.709 C 263.093 84.545,258.779 84.492,242.907 84.458 L 222.750 84.415 243.042 84.374 C 262.272 84.335,263.333 84.349,263.331 84.625 M349.804 84.458 C 345.526 84.483,338.476 84.483,334.138 84.458 C 329.799 84.434,333.300 84.413,341.917 84.413 C 350.533 84.413,354.083 84.434,349.804 84.458 " stroke="none" fill="#445cac" fill-rule="evenodd"></path><path id="path1" d="M128.249 15.501 C 128.083 15.685,127.986 15.875,128.034 15.923 C 128.082 15.971,128.246 15.821,128.398 15.589 C 128.730 15.082,128.664 15.043,128.249 15.501 M135.833 18.625 C 135.833 18.729,135.914 18.864,136.014 18.925 C 136.127 18.995,136.024 19.214,135.734 19.517 C 135.481 19.781,135.306 20.023,135.345 20.056 C 135.608 20.274,136.285 19.054,136.067 18.756 C 135.938 18.580,135.833 18.521,135.833 18.625 M222.224 18.628 C 222.118 18.695,240.392 18.750,262.833 18.750 C 285.274 18.750,303.600 18.694,303.558 18.625 C 303.458 18.463,222.478 18.466,222.224 18.628 M343.875 18.624 C 344.769 18.654,346.231 18.654,347.125 18.624 C 348.019 18.594,347.287 18.570,345.500 18.570 C 343.712 18.570,342.981 18.594,343.875 18.624 M150.572 22.833 C 150.572 24.988,150.595 25.869,150.624 24.792 C 150.653 23.715,150.653 21.952,150.624 20.875 C 150.595 19.798,150.572 20.679,150.572 22.833 M191.580 32.917 C 191.580 40.433,191.600 43.484,191.625 39.696 C 191.650 35.908,191.650 29.758,191.625 26.029 C 191.600 22.301,191.579 25.400,191.580 32.917 M337.667 20.864 C 337.254 21.240,337.067 21.468,337.250 21.372 C 337.564 21.206,338.647 20.159,338.490 20.174 C 338.449 20.177,338.079 20.488,337.667 20.864 M344.906 26.042 L 344.417 26.583 344.958 26.094 C 345.463 25.638,345.577 25.500,345.448 25.500 C 345.419 25.500,345.175 25.744,344.906 26.042 M152.792 26.958 C 153.823 26.987,155.510 26.987,156.542 26.958 C 157.573 26.929,156.729 26.905,154.667 26.905 C 152.604 26.905,151.760 26.929,152.792 26.958 M125.250 29.964 C 125.158 30.032,124.859 30.350,124.584 30.669 C 124.113 31.218,124.124 31.214,124.793 30.591 C 125.435 29.993,125.580 29.828,125.458 29.836 C 125.435 29.837,125.342 29.895,125.250 29.964 M64.111 31.944 C 63.901 32.155,63.999 32.375,64.222 32.190 C 64.365 32.071,65.814 31.989,68.347 31.958 L 72.250 31.910 68.236 31.872 C 66.028 31.851,64.172 31.883,64.111 31.944 M78.944 31.944 C 78.701 32.188,78.853 32.334,79.172 32.164 C 79.396 32.044,80.756 31.999,83.173 32.033 C 85.186 32.061,86.834 32.027,86.834 31.958 C 86.833 31.804,79.099 31.790,78.944 31.944 M94.000 31.958 C 94.000 32.027,95.762 32.083,97.917 32.083 C 100.071 32.083,101.833 32.027,101.833 31.958 C 101.833 31.890,100.071 31.833,97.917 31.833 C 95.763 31.833,94.000 31.890,94.000 31.958 M150.609 31.958 C 150.566 32.027,152.355 32.083,154.583 32.083 C 156.811 32.083,158.600 32.027,158.557 31.958 C 158.515 31.890,156.727 31.833,154.583 31.833 C 152.440 31.833,150.652 31.890,150.609 31.958 M169.689 31.911 C 169.802 32.024,177.348 32.041,177.460 31.929 C 177.513 31.876,175.768 31.833,173.583 31.833 C 171.399 31.833,169.646 31.868,169.689 31.911 M42.708 32.124 C 43.785 32.153,45.548 32.153,46.625 32.124 C 47.702 32.095,46.821 32.072,44.667 32.072 C 42.512 32.072,41.631 32.095,42.708 32.124 M86.910 39.250 C 86.910 43.100,86.932 44.651,86.958 42.697 C 86.985 40.743,86.985 37.593,86.958 35.697 C 86.931 33.801,86.910 35.400,86.910 39.250 M158.576 39.417 C 158.576 43.358,158.598 44.947,158.625 42.947 C 158.651 40.947,158.651 37.722,158.625 35.780 C 158.598 33.839,158.576 35.475,158.576 39.417 M206.910 39.333 C 206.910 43.229,206.931 44.823,206.958 42.875 C 206.985 40.927,206.985 37.740,206.958 35.792 C 206.931 33.844,206.910 35.438,206.910 39.333 M64.079 44.417 C 64.079 51.017,64.100 53.692,64.125 50.363 C 64.150 47.033,64.150 41.633,64.125 38.363 C 64.100 35.092,64.079 37.817,64.079 44.417 M78.910 39.500 C 78.910 43.396,78.931 44.990,78.958 43.042 C 78.985 41.094,78.985 37.906,78.958 35.958 C 78.931 34.010,78.910 35.604,78.910 39.500 M215.076 39.500 C 215.076 43.396,215.098 44.990,215.125 43.042 C 215.151 41.094,215.151 37.906,215.125 35.958 C 215.098 34.010,215.076 35.604,215.076 39.500 M318.833 34.500 C 319.124 34.867,319.399 35.167,319.445 35.167 C 319.491 35.167,319.290 34.867,319.000 34.500 C 318.710 34.133,318.434 33.833,318.389 33.833 C 318.343 33.833,318.543 34.133,318.833 34.500 M134.500 34.727 C 134.500 34.773,134.725 34.971,135.000 35.167 C 135.275 35.362,135.500 35.485,135.500 35.439 C 135.500 35.394,135.275 35.196,135.000 35.000 C 134.725 34.804,134.500 34.681,134.500 34.727 M136.500 36.417 C 136.811 36.737,137.103 37.000,137.149 37.000 C 137.195 37.000,136.978 36.737,136.667 36.417 C 136.356 36.096,136.064 35.833,136.018 35.833 C 135.972 35.833,136.189 36.096,136.500 36.417 M274.372 36.667 C 274.372 36.987,274.406 37.119,274.448 36.958 C 274.490 36.798,274.490 36.535,274.448 36.375 C 274.406 36.215,274.372 36.346,274.372 36.667 M106.240 36.875 L 105.750 37.417 106.292 36.927 C 106.590 36.658,106.833 36.414,106.833 36.385 C 106.833 36.257,106.696 36.370,106.240 36.875 M330.991 39.292 L 330.417 39.917 331.042 39.342 C 331.623 38.808,331.743 38.667,331.616 38.667 C 331.588 38.667,331.307 38.948,330.991 39.292 M272.125 41.807 C 271.873 41.959,271.667 42.145,271.667 42.220 C 271.667 42.295,271.892 42.196,272.167 42.000 C 272.907 41.473,272.881 41.351,272.125 41.807 M139.669 41.792 C 139.677 42.157,139.995 42.399,139.997 42.042 C 139.999 41.835,139.925 41.667,139.833 41.667 C 139.742 41.667,139.668 41.723,139.669 41.792 M258.792 42.958 C 260.556 42.985,263.444 42.985,265.208 42.958 C 266.973 42.931,265.529 42.909,262.000 42.909 C 258.471 42.909,257.027 42.931,258.792 42.958 M140.372 46.167 C 140.372 46.487,140.406 46.619,140.448 46.458 C 140.490 46.298,140.490 46.035,140.448 45.875 C 140.406 45.715,140.372 45.846,140.372 46.167 M254.069 48.667 C 254.069 50.362,254.094 51.056,254.124 50.208 C 254.154 49.360,254.154 47.973,254.124 47.125 C 254.094 46.277,254.069 46.971,254.069 48.667 M206.833 47.028 C 206.833 47.642,206.944 47.607,207.062 46.955 C 207.107 46.705,207.075 46.500,206.989 46.500 C 206.903 46.500,206.833 46.737,206.833 47.028 M191.567 49.583 C 191.567 50.958,191.593 51.499,191.624 50.784 C 191.655 50.069,191.655 48.944,191.624 48.284 C 191.592 47.624,191.566 48.208,191.567 49.583 M139.944 49.944 C 139.883 50.006,139.838 50.212,139.844 50.403 C 139.854 50.722,139.867 50.718,140.014 50.351 C 140.177 49.943,140.144 49.745,139.944 49.944 M75.574 51.245 C 75.396 51.379,75.325 51.489,75.417 51.489 C 75.508 51.489,75.729 51.379,75.907 51.245 C 76.085 51.110,76.155 51.000,76.064 51.000 C 75.972 51.000,75.751 51.110,75.574 51.245 M199.708 52.123 C 200.144 52.157,200.856 52.157,201.292 52.123 C 201.727 52.088,201.371 52.060,200.500 52.060 C 199.629 52.060,199.273 52.088,199.708 52.123 M193.551 52.291 C 194.541 52.321,196.116 52.321,197.051 52.291 C 197.985 52.261,197.175 52.237,195.250 52.237 C 193.325 52.237,192.560 52.262,193.551 52.291 M269.750 54.833 C 270.248 55.047,270.665 55.047,270.333 54.833 C 270.196 54.744,269.933 54.676,269.750 54.681 L 269.417 54.690 269.750 54.833 M271.667 55.558 C 271.667 55.596,271.948 55.837,272.292 56.094 C 272.804 56.477,272.857 56.493,272.585 56.182 C 272.269 55.820,271.667 55.411,271.667 55.558 M82.243 56.345 C 82.164 56.473,82.184 56.509,82.296 56.440 C 82.507 56.309,82.663 59.418,82.458 59.676 C 82.380 59.774,82.404 59.775,82.523 59.677 C 82.645 59.576,82.701 58.965,82.680 57.969 C 82.647 56.458,82.504 55.923,82.243 56.345 M154.395 58.000 C 154.395 58.962,154.423 59.356,154.456 58.875 C 154.490 58.394,154.490 57.606,154.456 57.125 C 154.423 56.644,154.395 57.038,154.395 58.000 M64.070 60.250 C 64.070 62.083,64.094 62.856,64.124 61.967 C 64.154 61.078,64.154 59.578,64.124 58.634 C 64.095 57.689,64.070 58.417,64.070 60.250 M273.310 57.458 C 273.518 57.756,273.724 58.000,273.767 58.000 C 273.911 58.000,273.521 57.391,273.224 57.153 C 273.015 56.985,273.040 57.074,273.310 57.458 M301.734 59.708 L 301.417 60.083 301.789 59.769 C 302.111 59.496,302.200 59.485,302.455 59.685 C 302.723 59.896,302.729 59.890,302.521 59.625 C 302.224 59.246,302.116 59.257,301.734 59.708 M341.000 60.250 C 341.311 60.571,341.603 60.833,341.649 60.833 C 341.695 60.833,341.478 60.571,341.167 60.250 C 340.856 59.929,340.564 59.667,340.518 59.667 C 340.472 59.667,340.689 59.929,341.000 60.250 M74.127 59.951 C 74.334 59.991,74.634 59.990,74.794 59.948 C 74.953 59.906,74.783 59.874,74.417 59.875 C 74.050 59.877,73.920 59.911,74.127 59.951 M274.318 60.455 C 274.390 60.709,274.417 61.029,274.378 61.167 C 274.323 61.362,274.342 61.369,274.462 61.198 C 274.632 60.957,274.540 60.211,274.324 60.078 C 274.249 60.031,274.247 60.201,274.318 60.455 M305.073 62.721 C 305.330 63.058,305.573 63.333,305.614 63.333 C 305.730 63.333,305.009 62.358,304.795 62.227 C 304.691 62.162,304.816 62.385,305.073 62.721 M158.958 63.791 C 159.990 63.820,161.677 63.820,162.708 63.791 C 163.740 63.762,162.896 63.738,160.833 63.738 C 158.771 63.738,157.927 63.762,158.958 63.791 M167.708 63.791 C 168.785 63.820,170.548 63.820,171.625 63.791 C 172.702 63.762,171.821 63.738,169.667 63.738 C 167.512 63.738,166.631 63.762,167.708 63.791 M195.083 63.783 C 198.385 63.902,201.500 63.906,201.500 63.792 C 201.500 63.723,199.756 63.682,197.625 63.701 C 195.494 63.719,194.350 63.756,195.083 63.783 M165.905 67.667 C 165.905 69.729,165.929 70.573,165.958 69.542 C 165.987 68.510,165.987 66.823,165.958 65.792 C 165.929 64.760,165.905 65.604,165.905 67.667 M193.405 67.833 C 193.405 69.987,193.429 70.869,193.458 69.792 C 193.487 68.715,193.487 66.952,193.458 65.875 C 193.429 64.798,193.405 65.679,193.405 67.833 M156.904 67.750 C 156.904 69.767,156.929 70.569,156.958 69.532 C 156.987 68.496,156.987 66.846,156.958 65.866 C 156.928 64.885,156.904 65.733,156.904 67.750 M201.405 67.917 C 201.405 70.025,201.429 70.865,201.458 69.782 C 201.487 68.700,201.487 66.975,201.458 65.949 C 201.428 64.923,201.405 65.808,201.405 67.917 M76.991 64.759 C 76.771 64.994,76.704 65.142,76.841 65.089 C 77.058 65.006,77.597 64.333,77.447 64.333 C 77.416 64.333,77.211 64.525,76.991 64.759 M274.519 65.278 C 274.509 65.385,274.451 65.610,274.392 65.778 C 274.308 66.015,274.331 66.041,274.491 65.893 C 274.605 65.788,274.662 65.563,274.618 65.393 C 274.575 65.223,274.530 65.171,274.519 65.278 M46.500 68.713 C 46.500 68.745,46.744 68.949,47.042 69.167 C 47.377 69.413,47.493 69.453,47.347 69.273 C 47.125 68.999,46.500 68.586,46.500 68.713 M271.782 71.422 C 271.525 71.648,271.381 71.833,271.462 71.833 C 271.542 71.833,271.785 71.646,272.000 71.417 C 272.498 70.886,272.388 70.889,271.782 71.422 M254.125 72.958 C 256.531 72.984,260.469 72.984,262.875 72.958 C 265.281 72.932,263.313 72.911,258.500 72.911 C 253.688 72.911,251.719 72.932,254.125 72.958 M315.663 74.995 C 315.857 75.267,316.101 75.543,316.205 75.607 C 316.309 75.671,316.184 75.448,315.927 75.112 C 315.370 74.381,315.160 74.288,315.663 74.995 M64.833 77.500 C 65.476 77.706,65.818 77.706,65.500 77.500 C 65.362 77.411,65.063 77.345,64.833 77.352 L 64.417 77.367 64.833 77.500 M106.833 77.708 C 106.833 77.777,107.827 77.821,109.042 77.807 C 111.446 77.778,111.235 77.703,108.542 77.630 C 107.602 77.604,106.833 77.640,106.833 77.708 M120.833 77.654 C 120.833 77.806,121.635 77.853,121.725 77.706 C 121.767 77.638,121.583 77.575,121.317 77.566 C 121.051 77.556,120.833 77.596,120.833 77.654 M125.583 77.682 C 125.273 77.829,125.276 77.835,125.625 77.769 C 126.052 77.688,126.066 77.719,125.824 78.219 C 125.654 78.571,125.657 78.572,125.907 78.260 C 126.392 77.655,126.233 77.373,125.583 77.682 M150.411 77.633 C 150.547 77.770,151.333 77.809,151.333 77.680 C 151.333 77.611,151.108 77.556,150.833 77.556 C 150.558 77.556,150.368 77.591,150.411 77.633 M183.833 77.676 C 183.627 77.817,183.642 77.839,183.917 77.799 C 184.237 77.752,184.253 77.870,184.341 80.917 L 184.432 84.083 184.424 80.847 C 184.417 77.608,184.362 77.315,183.833 77.676 M211.750 77.667 L 209.750 77.766 211.698 77.800 C 212.855 77.820,213.689 77.766,213.750 77.667 C 213.807 77.575,213.830 77.515,213.802 77.534 C 213.773 77.552,212.850 77.612,211.750 77.667 M54.699 80.625 C 54.681 82.298,54.723 83.667,54.792 83.667 C 54.860 83.667,54.897 82.748,54.873 81.625 C 54.794 77.905,54.731 77.545,54.699 80.625 M155.236 80.750 C 155.236 82.492,155.261 83.182,155.291 82.283 C 155.321 81.384,155.321 79.959,155.291 79.116 C 155.261 78.273,155.236 79.008,155.236 80.750 M179.402 80.833 C 179.402 82.438,179.427 83.094,179.457 82.292 C 179.488 81.490,179.488 80.177,179.457 79.375 C 179.427 78.573,179.402 79.229,179.402 80.833 M150.401 80.833 C 150.401 82.346,150.426 82.965,150.457 82.208 C 150.488 81.452,150.488 80.215,150.457 79.458 C 150.426 78.702,150.401 79.321,150.401 80.833 M210.545 79.333 C 210.545 79.746,210.578 79.915,210.618 79.708 C 210.657 79.502,210.657 79.165,210.618 78.958 C 210.578 78.752,210.545 78.921,210.545 79.333 M107.881 79.583 C 107.882 80.042,107.915 80.209,107.953 79.956 C 107.991 79.703,107.990 79.328,107.951 79.123 C 107.911 78.918,107.880 79.125,107.881 79.583 M124.917 79.461 C 124.825 79.528,124.640 79.733,124.505 79.917 C 124.324 80.163,124.379 80.144,124.713 79.846 C 125.121 79.482,125.245 79.329,125.125 79.336 C 125.102 79.337,125.008 79.394,124.917 79.461 M280.030 80.687 C 279.635 81.061,279.339 81.395,279.374 81.430 C 279.409 81.465,279.767 81.157,280.170 80.747 C 281.084 79.815,280.995 79.778,280.030 80.687 M197.109 80.625 C 197.066 80.694,197.418 80.729,197.891 80.702 C 199.423 80.617,199.610 80.550,198.385 80.525 C 197.726 80.511,197.151 80.556,197.109 80.625 M182.697 81.250 C 182.801 81.479,182.952 81.667,183.031 81.667 C 183.110 81.667,183.051 81.479,182.901 81.250 C 182.751 81.021,182.601 80.833,182.568 80.833 C 182.534 80.833,182.593 81.021,182.697 81.250 M199.887 81.833 C 199.887 82.429,199.917 82.673,199.954 82.375 C 199.991 82.077,199.991 81.590,199.954 81.292 C 199.917 80.994,199.887 81.237,199.887 81.833 M45.663 81.124 C 46.074 81.160,46.524 81.278,46.663 81.386 C 46.885 81.558,46.888 81.546,46.688 81.292 C 46.521 81.079,46.249 81.008,45.688 81.029 L 44.917 81.058 45.663 81.124 M81.381 81.123 C 81.912 81.157,82.737 81.156,83.214 81.123 C 83.692 81.089,83.258 81.062,82.250 81.062 C 81.242 81.063,80.851 81.090,81.381 81.123 M109.500 81.157 L 107.917 81.250 107.902 82.126 L 107.888 83.002 107.953 82.168 L 108.017 81.333 109.592 81.333 C 110.531 81.333,111.167 81.266,111.167 81.167 C 111.167 81.075,111.148 81.014,111.125 81.032 C 111.102 81.049,110.371 81.106,109.500 81.157 M151.750 81.105 C 152.946 81.229,154.334 81.240,154.334 81.125 C 154.333 81.056,153.640 81.012,152.792 81.027 C 151.944 81.041,151.475 81.077,151.750 81.105 M195.080 81.488 C 195.168 82.046,195.281 82.292,195.385 82.153 C 195.413 82.115,195.336 81.821,195.213 81.500 L 194.989 80.917 195.080 81.488 M64.832 82.534 C 64.787 83.332,64.810 83.925,64.882 83.852 C 64.955 83.778,64.992 83.125,64.964 82.401 L 64.914 81.083 64.832 82.534 M210.568 81.398 C 210.519 81.525,210.508 81.956,210.544 82.356 C 210.608 83.080,210.609 83.079,210.638 82.214 L 210.667 81.345 212.292 81.291 L 213.917 81.236 212.286 81.202 C 211.027 81.175,210.636 81.219,210.568 81.398 M92.667 81.943 C 92.667 82.034,92.873 82.290,93.125 82.513 L 93.583 82.917 93.167 82.417 C 92.938 82.142,92.731 81.885,92.708 81.847 C 92.685 81.809,92.667 81.852,92.667 81.943 M123.667 81.931 C 123.667 82.053,124.700 83.500,124.787 83.500 C 124.821 83.500,124.789 83.406,124.714 83.292 C 124.639 83.177,124.403 82.802,124.189 82.458 C 123.821 81.866,123.667 81.711,123.667 81.931 M121.417 82.465 C 120.974 83.039,120.799 83.333,120.900 83.333 C 121.027 83.333,121.889 82.166,121.815 82.095 C 121.779 82.061,121.600 82.227,121.417 82.465 M166.109 82.125 C 166.066 82.194,166.418 82.229,166.891 82.202 C 168.423 82.117,168.610 82.050,167.385 82.025 C 166.726 82.011,166.151 82.056,166.109 82.125 M165.542 83.542 C 165.362 84.031,165.367 84.052,165.588 83.760 C 165.800 83.480,165.925 83.000,165.787 83.000 C 165.761 83.000,165.651 83.244,165.542 83.542 M196.875 83.115 C 197.035 83.157,197.298 83.157,197.458 83.115 C 197.619 83.073,197.487 83.039,197.167 83.039 C 196.846 83.039,196.715 83.073,196.875 83.115 M242.907 84.458 C 258.779 84.492,263.093 84.545,263.196 84.709 C 263.290 84.857,263.329 84.832,263.331 84.625 C 263.333 84.349,262.272 84.335,243.042 84.374 L 222.750 84.415 242.907 84.458 M334.138 84.458 C 338.476 84.483,345.526 84.483,349.804 84.458 C 354.083 84.434,350.533 84.413,341.917 84.413 C 333.300 84.413,329.799 84.434,334.138 84.458 M257.487 90.112 L 257.083 90.557 257.536 90.237 C 257.786 90.061,257.992 89.860,257.995 89.792 C 258.003 89.586,257.912 89.644,257.487 90.112 M270.263 90.130 L 269.943 90.583 270.388 90.179 C 270.856 89.755,270.914 89.663,270.708 89.672 C 270.640 89.675,270.439 89.881,270.263 90.130 " stroke="none" fill="#485cac" fill-rule="evenodd"></path></g></svg>