<svg width="123" height="124" viewBox="0 0 123 124" fill="none" xmlns="http://www.w3.org/2000/svg">
<path d="M67.6735 28.0306C74.1559 29.2769 80.3105 32.3886 85.3584 37.4304C85.7428 37.8148 86.1192 38.2073 86.4874 38.614C91.7963 44.4328 94.5883 51.7143 95.1144 59.2103H122.923C122.843 57.1001 122.652 54.998 122.357 52.8999C122.149 51.423 121.908 49.9541 121.592 48.4954C121.115 46.284 120.498 44.103 119.777 41.9442C119.375 40.7384 118.998 39.5265 118.519 38.3429C117.58 36.0142 116.427 33.7603 115.193 31.5368C114.493 30.2824 113.789 29.0321 112.996 27.8181C111.65 25.7524 110.133 23.7737 108.514 21.8476C107.98 21.2103 107.598 20.4921 107.031 19.873C106.374 19.1507 105.702 18.4486 105.02 17.7668C94.6045 7.34322 81.2857 1.65596 67.6715 0.219482V28.0306H67.6735Z" fill="#17224D"/>
<path d="M85.4516 85.6234C79.2828 91.7699 70.9088 95.529 61.519 95.5371C60.9829 95.5371 60.4427 95.525 59.9025 95.5007C51.2816 95.1041 43.4659 91.4199 37.6249 85.589C31.796 79.7479 28.1097 71.9303 27.7131 63.3073C27.6889 62.7631 27.6747 62.2269 27.6747 61.6908C27.6828 52.3031 31.4419 43.929 37.5885 37.7602C43.7572 31.6137 52.1313 27.8546 61.5211 27.8465V0.219482C44.5787 0.225552 29.2649 7.22385 18.1474 18.3192C7.05209 29.4367 0.332997 44.7504 0.326927 61.6928C0.326927 63.4854 0.444271 65.2496 0.596012 67.0017C0.810473 69.47 1.13216 71.906 1.63392 74.2853C1.92729 75.6954 2.3117 77.0692 2.70218 78.441C3.39412 80.8547 4.16294 83.2339 5.13408 85.5182C5.62572 86.6775 6.21043 87.7882 6.76884 88.9091C7.77842 90.9262 8.87298 92.8907 10.091 94.7744C10.8881 96.0085 11.7419 97.1962 12.624 98.3696C13.9169 100.085 15.2845 101.732 16.7413 103.298C17.2511 103.848 17.7245 104.433 18.2526 104.963C18.7847 105.495 19.3694 105.967 19.9197 106.479C21.4837 107.933 23.1265 109.299 24.8402 110.588C26.0197 111.474 27.2134 112.332 28.4557 113.133C30.3352 114.345 32.2917 115.437 34.3028 116.443C35.4256 117.003 36.5384 117.588 37.6997 118.082C39.986 119.053 42.3673 119.824 44.783 120.514C46.1487 120.902 47.5164 121.285 48.9205 121.578C51.3058 122.082 53.7499 122.405 56.2263 122.618C57.0457 122.689 57.8165 122.925 58.644 122.962C59.6091 123.006 60.5681 123.029 61.5231 123.029C78.4189 123.035 93.8399 116.142 104.897 105.062C115.11 94.8694 121.691 80.9497 122.665 65.6077H94.9688C94.0665 73.3829 90.716 80.3387 85.4516 85.6234Z" fill="#007FFF"/>
<path d="M61.5188 27.7878V0.219482C44.5764 0.225552 29.2627 7.22385 18.1452 18.3192C7.04987 29.4367 0.330777 44.7504 0.324707 61.6928C0.324707 63.4854 0.442054 65.2496 0.593795 67.0017C0.808255 69.47 1.12995 71.906 1.6317 74.2853C1.72275 74.7203 1.85628 75.1371 1.96149 75.564C4.53501 64.147 10.1474 53.9014 18.1472 45.8875C29.2627 34.7922 44.5764 27.7939 61.5188 27.7878Z" fill="#007FFF"/>
<path opacity="0.89" d="M75.1695 108.74C51.856 108.74 32.7306 91.8668 28.6518 69.7308C28.496 69.0996 28.4677 68.4279 28.3483 67.7825C28.1622 66.4775 27.8202 65.2231 27.7434 63.8878C27.7879 64.4442 27.9538 64.9662 28.0266 65.5165C27.9416 64.774 27.7474 64.0638 27.713 63.3071C27.6887 62.7629 27.6746 62.2267 27.6746 61.6906C27.6827 52.3029 31.4398 43.9288 37.5883 37.76C43.7571 31.6155 52.1312 27.8544 61.5209 27.8483V27.7876C44.5785 27.7937 29.2648 34.792 18.1473 45.8873C10.1475 53.9032 4.53711 64.1488 1.96156 75.5638C2.19827 76.5268 2.43094 77.4919 2.70003 78.4408C3.39197 80.8545 4.16079 83.2338 5.13193 85.518C5.62357 86.6773 6.20828 87.788 6.76669 88.9089C7.77627 90.926 8.87083 92.8906 10.0868 94.7742C10.8839 96.0083 11.7377 97.196 12.6198 98.3694C13.9107 100.085 15.2804 101.732 16.7371 103.298C17.2469 103.848 17.7204 104.433 18.2484 104.963C18.7805 105.493 19.3652 105.967 19.9156 106.478C21.4795 107.933 23.1244 109.299 24.836 110.588C26.0155 111.474 27.2092 112.332 28.4495 113.133C30.329 114.345 32.2855 115.437 34.2966 116.443C35.4194 117.003 36.5322 117.59 37.6935 118.082C39.9798 119.053 42.3611 119.824 44.7768 120.516C46.1425 120.902 47.5102 121.286 48.9143 121.58C51.2996 122.084 53.7437 122.407 56.2201 122.622C57.0395 122.692 57.8104 122.929 58.6378 122.966C59.6029 123.01 60.5619 123.032 61.5169 123.032C78.4127 123.038 93.8337 116.145 104.891 105.066C114.566 95.4115 120.918 82.3921 122.395 68.005C120.212 80.9354 104.808 108.74 75.1695 108.74Z" fill="url(#paint0_linear_75_671)"/>
<path opacity="0.89" d="M61.5189 95.535C60.9807 95.535 60.4425 95.5228 59.9023 95.4986C51.2814 95.102 43.4657 91.4177 37.6247 85.5889C33.2829 81.2389 30.1429 75.7884 28.6518 69.7309C32.7326 91.8669 51.856 108.74 75.1695 108.74C104.808 108.74 120.212 80.9334 122.397 68.0031C122.478 67.2039 122.61 66.4169 122.66 65.6096H94.9687C94.0663 73.3828 90.7159 80.3386 85.4515 85.6233C79.2827 91.7698 70.9086 95.5289 61.5189 95.535Z" fill="url(#paint1_linear_75_671)"/>
<defs>
<linearGradient id="paint0_linear_75_671" x1="5.55919" y1="11.0124" x2="64.7472" y2="80.065" gradientUnits="userSpaceOnUse">
<stop stop-opacity="0.9"/>
<stop offset="0.1165" stop-opacity="0.6819"/>
<stop offset="0.1677" stop-opacity="0.6392"/>
<stop offset="0.9342" stop-opacity="0"/>
</linearGradient>
<linearGradient id="paint1_linear_75_671" x1="45.3454" y1="123.854" x2="75.4943" y2="71.3247" gradientUnits="userSpaceOnUse">
<stop stop-opacity="0.9"/>
<stop offset="0.1165" stop-opacity="0.6819"/>
<stop offset="0.1677" stop-opacity="0.6392"/>
<stop offset="0.9342" stop-opacity="0"/>
</linearGradient>
</defs>
</svg>
