<svg xmlns="http://www.w3.org/2000/svg" width="685" height="399" fill="none" viewBox="0 0 685 399">
  <path fill="#094899" d="M191.845 374.958c.005 1.532.138 3.06.4 4.569l46.828-22.053V47.231h191.85V.001H0v47.23h191.845v327.727z"/>
  <path fill="#202E40" d="M334.451 312.556c.335-2.279.503-4.579.505-6.883V141.686h95.965V94.459H287.729V334.56l46.722-22.004z"/>
  <path fill="#C51062" d="M287.729 338.608v14.295a47.244 47.244 0 0045.248-33.695l-45.248 19.4z"/>
  <path fill="#202E40" d="M428.496 268.265v-17.929c0-21.032 4.414-30.38 10.905-36.092 6.232-5.453 18.176-9.348 38.689-9.348h12.204c20.513 0 32.457 3.895 38.689 9.348a25.31 25.31 0 014.184 4.728l34.571-16.281a61.906 61.906 0 00-13.309-17.009c-16.618-14.801-38.948-19.215-64.135-19.215H478.09c-25.186 0-47.517 4.414-64.135 19.215-16.618 14.8-23.629 37.649-23.629 64.654v19.994c-.009 5.183.273 10.362.845 15.513l37.325-17.578zM637.223 141.686v28.281l47.173-22.216V94.459H541.258v47.227H637.223z"/>
  <path fill="#C51062" d="M197.783 387.766l41.289-14.981v-13.316l-46.826 20.076c4.36 25.674 45.086 25.953 46.745-2.535.051-.859.073-1.722.076-2.604l-41.284 13.36zM435.117 301.651c-3.352-4.931-5.674-12.165-6.386-23.501l-36.387 15.601a85.07 85.07 0 006.636 21.012l36.137-13.112zM539.894 263.639l38.162-13.846c-.044-12.195-1.541-23.522-4.703-33.643l-35.187 15.086c1.111 5.016 1.728 11.242 1.728 19.102v13.301z"/>
  <path fill="#202E40" d="M539.708 277.117c-.87 16.381-4.981 24.48-10.728 29.307-6.231 5.713-18.176 9.607-38.688 9.607h-12.205c-17.722 0-29.037-2.91-35.81-7.385l-39.646 12.83a61.285 61.285 0 0011.321 13.51c16.618 14.801 38.949 19.215 64.135 19.215h12.205c25.186 0 47.517-4.414 64.135-19.215 16.618-14.54 23.628-37.39 23.628-64.654v-5.624l-38.347 12.409zM637.223 245.56v60.115a47.226 47.226 0 0047.227 47.227V230.278l-47.227 15.282z"/>
  <path fill="#C51062" d="M684.449 211.187v-30.228h-.053v-12.422l-47.173 20.225v39.56l47.226-17.135z"/>
</svg>
